<svg id="svg" version="1.1" xmlns="http://www.w3.org/2000/svg" xmlns:xlink="http://www.w3.org/1999/xlink" width="400" height="400" viewBox="0, 0, 400,400"><g id="svgg"><path id="path0" d="M185.200 0.582 C 185.200 1.028,184.519 1.193,182.300 1.282 C 179.660 1.389,179.389 1.479,179.275 2.279 C 179.169 3.021,178.856 3.177,177.275 3.279 C 175.679 3.382,175.381 3.534,175.272 4.300 C 175.179 4.957,174.876 5.200,174.154 5.200 C 173.609 5.200,172.714 5.650,172.164 6.200 C 171.614 6.750,170.722 7.200,170.182 7.200 C 169.401 7.200,169.200 7.405,169.200 8.200 C 169.200 9.000,169.000 9.200,168.200 9.200 C 167.400 9.200,167.200 9.400,167.200 10.200 C 167.200 11.072,167.025 11.200,165.829 11.200 C 164.546 11.200,163.200 12.020,163.200 12.801 C 163.200 12.990,162.795 13.202,162.300 13.272 C 161.722 13.354,161.354 13.722,161.272 14.300 C 161.180 14.951,160.876 15.200,160.172 15.200 C 159.402 15.200,159.200 15.408,159.200 16.200 C 159.200 17.000,159.000 17.200,158.200 17.200 C 157.408 17.200,157.200 17.402,157.200 18.172 C 157.200 18.874,156.951 19.180,156.304 19.272 C 155.787 19.346,155.344 19.738,155.256 20.199 C 155.172 20.638,154.675 21.395,154.152 21.880 C 153.551 22.437,153.200 23.211,153.200 23.981 C 153.200 25.015,153.048 25.200,152.200 25.200 C 151.400 25.200,151.200 25.400,151.200 26.200 C 151.200 27.000,151.000 27.200,150.200 27.200 C 149.408 27.200,149.200 27.402,149.200 28.172 C 149.200 28.876,148.951 29.180,148.300 29.272 C 147.532 29.381,147.382 29.679,147.278 31.300 C 147.168 33.015,147.061 33.200,146.178 33.200 C 145.409 33.200,145.200 33.408,145.200 34.172 C 145.200 34.876,144.951 35.180,144.300 35.272 C 143.532 35.381,143.382 35.679,143.278 37.300 C 143.168 39.015,143.061 39.200,142.178 39.200 C 141.271 39.200,141.200 39.345,141.200 41.200 C 141.200 43.067,141.133 43.200,140.200 43.200 C 139.446 43.200,139.200 43.410,139.200 44.054 C 139.200 44.524,138.750 45.325,138.200 45.835 C 137.555 46.433,137.200 47.194,137.200 47.981 C 137.200 48.651,137.033 49.200,136.829 49.200 C 136.026 49.200,135.200 50.524,135.200 51.810 C 135.200 52.721,134.873 53.491,134.200 54.164 C 133.398 54.966,133.200 55.562,133.200 57.182 C 133.200 59.068,133.135 59.200,132.200 59.200 C 131.267 59.200,131.200 59.333,131.200 61.200 C 131.200 63.067,131.133 63.200,130.200 63.200 C 129.246 63.200,129.200 63.309,129.200 65.571 C 129.200 67.624,129.066 68.048,128.200 68.729 C 127.396 69.361,127.200 69.871,127.200 71.330 C 127.200 72.907,127.082 73.161,126.300 73.272 C 125.722 73.354,125.354 73.722,125.272 74.300 C 125.144 75.199,125.137 75.200,117.118 75.200 L 109.092 75.200 108.165 74.200 L 107.238 73.200 94.000 73.200 L 80.762 73.200 79.844 74.190 C 78.947 75.159,78.780 75.182,72.163 75.290 C 65.492 75.399,65.398 75.412,65.272 76.300 C 65.149 77.164,64.987 77.200,61.172 77.200 C 57.202 77.200,57.200 77.200,57.200 78.200 C 57.200 79.178,57.133 79.200,54.200 79.200 C 51.267 79.200,51.200 79.222,51.200 80.200 C 51.200 81.133,51.067 81.200,49.200 81.200 C 47.333 81.200,47.200 81.267,47.200 82.200 C 47.200 83.122,47.056 83.200,45.358 83.200 C 43.869 83.200,43.364 83.392,42.729 84.200 C 42.163 84.919,41.557 85.200,40.571 85.200 C 39.375 85.200,39.200 85.328,39.200 86.200 C 39.200 87.048,39.015 87.200,37.981 87.200 C 37.194 87.200,36.433 87.555,35.835 88.200 C 35.325 88.750,34.524 89.200,34.054 89.200 C 33.410 89.200,33.200 89.446,33.200 90.200 C 33.200 91.000,33.000 91.200,32.200 91.200 C 31.400 91.200,31.200 91.400,31.200 92.200 C 31.200 93.000,31.000 93.200,30.200 93.200 C 29.400 93.200,29.200 93.400,29.200 94.200 C 29.200 95.000,29.000 95.200,28.200 95.200 C 27.400 95.200,27.200 95.400,27.200 96.200 C 27.200 97.000,27.000 97.200,26.200 97.200 C 25.405 97.200,25.200 97.401,25.200 98.182 C 25.200 98.722,24.750 99.614,24.200 100.164 C 23.650 100.714,23.200 101.622,23.200 102.182 C 23.200 103.001,23.005 103.200,22.200 103.200 C 21.267 103.200,21.200 103.333,21.200 105.200 C 21.200 107.067,21.133 107.200,20.200 107.200 C 19.222 107.200,19.200 107.267,19.200 110.200 C 19.200 113.133,19.178 113.200,18.200 113.200 L 17.200 113.200 17.200 119.442 C 17.200 125.584,17.183 125.704,16.158 126.923 C 14.900 128.418,15.007 130.952,16.375 132.060 C 17.145 132.683,17.200 133.147,17.200 138.983 C 17.200 145.141,17.215 145.253,18.200 146.165 C 19.087 146.987,19.200 147.415,19.200 149.946 C 19.200 152.710,19.231 152.800,20.182 152.800 C 21.125 152.800,21.170 152.919,21.282 155.700 C 21.390 158.361,21.474 158.611,22.300 158.728 C 23.094 158.841,23.200 159.087,23.200 160.828 C 23.200 162.665,23.269 162.800,24.200 162.800 C 25.133 162.800,25.200 162.933,25.200 164.800 C 25.200 166.667,25.267 166.800,26.200 166.800 C 27.133 166.800,27.200 166.933,27.200 168.800 C 27.200 170.667,27.267 170.800,28.200 170.800 C 29.133 170.800,29.200 170.933,29.200 172.800 C 29.200 174.667,29.267 174.800,30.200 174.800 C 31.048 174.800,31.200 174.985,31.200 176.019 C 31.200 176.806,31.555 177.567,32.200 178.165 C 32.750 178.675,33.200 179.476,33.200 179.946 C 33.200 180.585,33.446 180.800,34.177 180.800 C 35.040 180.800,35.168 180.998,35.277 182.500 C 35.372 183.813,35.605 184.290,36.300 184.595 C 36.852 184.837,37.200 185.340,37.200 185.895 C 37.200 186.594,37.428 186.800,38.200 186.800 C 38.950 186.800,39.200 187.011,39.200 187.642 C 39.200 188.106,39.639 188.830,40.175 189.252 C 40.770 189.720,41.199 190.523,41.275 191.310 C 41.371 192.296,41.612 192.630,42.300 192.728 C 42.951 192.820,43.200 193.124,43.200 193.828 C 43.200 194.598,43.408 194.800,44.200 194.800 C 45.000 194.800,45.200 195.000,45.200 195.800 C 45.200 196.600,45.400 196.800,46.200 196.800 C 46.991 196.800,47.200 197.002,47.200 197.767 C 47.200 198.298,47.360 198.793,47.556 198.867 C 48.409 199.186,47.080 203.200,46.121 203.200 C 45.405 203.200,45.200 203.423,45.200 204.200 C 45.200 205.000,45.000 205.200,44.200 205.200 C 43.400 205.200,43.200 205.400,43.200 206.200 C 43.200 207.000,43.000 207.200,42.200 207.200 C 41.328 207.200,41.200 207.375,41.200 208.571 C 41.200 209.557,40.919 210.163,40.200 210.729 C 39.650 211.161,39.200 211.894,39.200 212.358 C 39.200 212.989,38.950 213.200,38.200 213.200 C 37.428 213.200,37.200 213.406,37.200 214.105 C 37.200 214.660,36.852 215.163,36.300 215.405 C 35.605 215.710,35.372 216.187,35.277 217.500 C 35.168 219.002,35.040 219.200,34.177 219.200 C 33.446 219.200,33.200 219.415,33.200 220.054 C 33.200 220.524,32.750 221.325,32.200 221.835 C 31.555 222.433,31.200 223.194,31.200 223.981 C 31.200 225.015,31.048 225.200,30.200 225.200 C 29.267 225.200,29.200 225.333,29.200 227.200 C 29.200 229.067,29.133 229.200,28.200 229.200 C 27.267 229.200,27.200 229.333,27.200 231.200 C 27.200 233.067,27.133 233.200,26.200 233.200 C 25.267 233.200,25.200 233.333,25.200 235.200 C 25.200 237.067,25.133 237.200,24.200 237.200 C 23.269 237.200,23.200 237.335,23.200 239.172 C 23.200 240.913,23.094 241.159,22.300 241.272 C 21.474 241.389,21.390 241.639,21.282 244.300 C 21.170 247.081,21.125 247.200,20.182 247.200 C 19.231 247.200,19.200 247.290,19.200 250.054 C 19.200 252.585,19.087 253.013,18.200 253.835 C 17.218 254.745,17.200 254.871,17.200 260.835 C 17.200 266.799,17.182 266.925,16.200 267.835 C 14.822 269.112,14.822 271.490,16.200 273.127 C 17.173 274.284,17.200 274.483,17.200 280.558 L 17.200 286.800 18.182 286.800 C 19.125 286.800,19.170 286.919,19.282 289.700 C 19.390 292.361,19.474 292.611,20.300 292.728 C 21.094 292.841,21.200 293.087,21.200 294.828 C 21.200 296.665,21.269 296.800,22.200 296.800 C 22.950 296.800,23.200 297.011,23.200 297.642 C 23.200 298.106,23.650 298.839,24.200 299.271 C 24.919 299.837,25.200 300.443,25.200 301.429 C 25.200 302.625,25.328 302.800,26.200 302.800 C 27.000 302.800,27.200 303.000,27.200 303.800 C 27.200 304.600,27.400 304.800,28.200 304.800 C 29.000 304.800,29.200 305.000,29.200 305.800 C 29.200 306.600,29.400 306.800,30.200 306.800 C 31.000 306.800,31.200 307.000,31.200 307.800 C 31.200 308.600,31.400 308.800,32.200 308.800 C 33.000 308.800,33.200 309.000,33.200 309.800 C 33.200 310.595,33.401 310.800,34.182 310.800 C 34.722 310.800,35.614 311.250,36.164 311.800 C 36.714 312.350,37.622 312.800,38.182 312.800 C 39.001 312.800,39.200 312.995,39.200 313.800 C 39.200 314.733,39.333 314.800,41.200 314.800 C 43.067 314.800,43.200 314.867,43.200 315.800 C 43.200 316.733,43.333 316.800,45.200 316.800 C 47.067 316.800,47.200 316.867,47.200 317.800 C 47.200 318.733,47.333 318.800,49.200 318.800 C 51.067 318.800,51.200 318.867,51.200 319.800 C 51.200 320.778,51.267 320.800,54.200 320.800 C 57.133 320.800,57.200 320.822,57.200 321.800 C 57.200 322.800,57.202 322.800,61.172 322.800 C 64.987 322.800,65.149 322.836,65.272 323.700 C 65.399 324.591,65.473 324.601,72.678 324.709 C 79.889 324.817,79.963 324.827,80.736 325.809 L 81.515 326.800 94.000 326.800 L 106.485 326.800 107.271 325.800 L 108.058 324.800 116.601 324.800 L 125.144 324.800 125.272 325.700 C 125.354 326.278,125.722 326.646,126.300 326.728 C 127.082 326.839,127.200 327.093,127.200 328.670 C 127.200 330.129,127.396 330.639,128.200 331.271 C 129.066 331.952,129.200 332.376,129.200 334.429 C 129.200 336.691,129.246 336.800,130.200 336.800 C 131.133 336.800,131.200 336.933,131.200 338.800 C 131.200 340.667,131.267 340.800,132.200 340.800 C 133.135 340.800,133.200 340.932,133.200 342.818 C 133.200 344.438,133.398 345.034,134.200 345.836 C 134.823 346.459,135.200 347.290,135.200 348.037 C 135.200 348.804,135.561 349.573,136.200 350.165 C 136.750 350.675,137.200 351.484,137.200 351.964 C 137.200 352.444,137.650 353.286,138.200 353.836 C 138.750 354.386,139.200 355.278,139.200 355.818 C 139.200 356.599,139.405 356.800,140.200 356.800 C 141.133 356.800,141.200 356.933,141.200 358.800 C 141.200 360.655,141.271 360.800,142.178 360.800 C 143.061 360.800,143.168 360.985,143.278 362.700 C 143.382 364.321,143.532 364.619,144.300 364.728 C 144.951 364.820,145.200 365.124,145.200 365.828 C 145.200 366.592,145.409 366.800,146.178 366.800 C 147.061 366.800,147.168 366.985,147.278 368.700 C 147.382 370.321,147.532 370.619,148.300 370.728 C 148.951 370.820,149.200 371.124,149.200 371.828 C 149.200 372.598,149.408 372.800,150.200 372.800 C 151.000 372.800,151.200 373.000,151.200 373.800 C 151.200 374.600,151.400 374.800,152.200 374.800 C 153.005 374.800,153.200 374.999,153.200 375.818 C 153.200 376.378,153.637 377.273,154.171 377.807 C 154.705 378.341,155.200 379.188,155.271 379.689 C 155.354 380.278,155.718 380.645,156.300 380.728 C 156.951 380.820,157.200 381.124,157.200 381.828 C 157.200 382.598,157.408 382.800,158.200 382.800 C 159.000 382.800,159.200 383.000,159.200 383.800 C 159.200 384.592,159.402 384.800,160.172 384.800 C 160.874 384.800,161.180 385.049,161.272 385.696 C 161.346 386.213,161.738 386.656,162.199 386.744 C 162.638 386.828,163.395 387.325,163.880 387.848 C 164.437 388.449,165.211 388.800,165.981 388.800 C 167.015 388.800,167.200 388.952,167.200 389.800 C 167.200 390.600,167.400 390.800,168.200 390.800 C 169.000 390.800,169.200 391.000,169.200 391.800 C 169.200 392.672,169.375 392.800,170.571 392.800 C 171.557 392.800,172.163 393.081,172.729 393.800 C 173.161 394.350,173.882 394.800,174.330 394.800 C 174.870 394.800,175.187 395.103,175.272 395.700 C 175.380 396.461,175.681 396.618,177.213 396.718 C 178.634 396.811,179.110 397.027,179.413 397.718 C 179.748 398.482,180.160 398.616,182.500 398.718 C 184.541 398.808,185.200 398.978,185.200 399.418 C 185.200 399.917,187.318 400.000,200.000 400.000 C 212.889 400.000,214.800 399.923,214.800 399.400 C 214.800 398.934,215.330 398.800,217.171 398.800 C 219.431 398.800,220.800 398.194,220.800 397.193 C 220.800 397.001,221.655 396.789,222.700 396.722 C 224.321 396.618,224.619 396.468,224.728 395.700 C 224.813 395.103,225.130 394.800,225.670 394.800 C 226.118 394.800,226.839 394.350,227.271 393.800 C 227.837 393.081,228.443 392.800,229.429 392.800 C 230.625 392.800,230.800 392.672,230.800 391.800 C 230.800 391.000,231.000 390.800,231.800 390.800 C 232.600 390.800,232.800 390.600,232.800 389.800 C 232.800 388.995,232.999 388.800,233.818 388.800 C 234.378 388.800,235.273 388.363,235.807 387.829 C 236.341 387.295,237.188 386.800,237.689 386.729 C 238.269 386.647,238.645 386.282,238.725 385.725 C 238.802 385.179,239.179 384.802,239.725 384.725 C 240.270 384.647,240.647 384.270,240.725 383.725 C 240.802 383.179,241.179 382.802,241.725 382.725 C 242.245 382.650,242.647 382.271,242.716 381.788 C 242.780 381.341,243.230 380.801,243.716 380.588 C 244.254 380.352,244.649 379.773,244.726 379.109 C 244.795 378.509,245.290 377.673,245.826 377.251 C 246.362 376.830,246.800 376.106,246.800 375.642 C 246.800 375.011,247.050 374.800,247.800 374.800 C 248.600 374.800,248.800 374.600,248.800 373.800 C 248.800 373.000,249.000 372.800,249.800 372.800 C 250.572 372.800,250.800 372.594,250.800 371.895 C 250.800 371.340,251.148 370.837,251.700 370.595 C 252.392 370.291,252.628 369.812,252.722 368.524 C 252.830 367.040,252.966 366.835,253.918 366.724 C 254.616 366.644,255.046 366.321,255.144 365.804 C 255.228 365.367,255.634 364.772,256.047 364.482 C 256.460 364.193,256.911 363.246,257.050 362.378 C 257.233 361.232,257.496 360.800,258.008 360.800 C 258.845 360.800,259.200 360.025,259.200 358.195 C 259.200 357.111,259.371 356.831,260.100 356.728 C 260.820 356.626,261.040 356.280,261.200 355.000 C 261.345 353.837,261.646 353.292,262.300 353.005 C 262.891 352.746,263.200 352.264,263.200 351.601 C 263.200 351.046,263.638 350.120,264.173 349.542 C 264.771 348.897,265.195 347.897,265.273 346.946 C 265.367 345.797,265.631 345.299,266.300 345.005 C 267.049 344.676,267.200 344.296,267.200 342.733 C 267.200 341.091,267.313 340.840,268.100 340.728 C 268.868 340.619,269.018 340.321,269.122 338.700 C 269.220 337.174,269.387 336.800,269.972 336.800 C 270.753 336.800,271.200 335.404,271.200 332.959 C 271.200 331.970,271.463 331.446,272.200 330.963 C 273.000 330.439,273.200 329.977,273.200 328.650 C 273.200 327.426,273.409 326.862,274.000 326.493 C 274.440 326.218,274.800 325.725,274.800 325.397 C 274.800 324.886,276.041 324.800,283.371 324.800 L 291.942 324.800 292.729 325.800 L 293.515 326.800 306.000 326.800 L 318.485 326.800 319.264 325.809 C 320.037 324.827,320.111 324.817,327.322 324.709 C 334.492 324.602,334.602 324.587,334.726 323.714 C 334.845 322.879,335.072 322.822,338.726 322.714 C 342.399 322.606,342.607 322.553,342.728 321.700 C 342.847 320.859,343.050 320.800,345.828 320.800 C 348.731 320.800,348.800 320.777,348.800 319.800 C 348.800 318.867,348.933 318.800,350.800 318.800 C 352.667 318.800,352.800 318.733,352.800 317.800 C 352.800 316.867,352.933 316.800,354.800 316.800 C 356.667 316.800,356.800 316.733,356.800 315.800 C 356.800 314.867,356.933 314.800,358.800 314.800 C 360.667 314.800,360.800 314.733,360.800 313.800 C 360.800 312.995,360.999 312.800,361.818 312.800 C 362.378 312.800,363.286 312.350,363.836 311.800 C 364.386 311.250,365.278 310.800,365.818 310.800 C 366.599 310.800,366.800 310.595,366.800 309.800 C 366.800 309.000,367.000 308.800,367.800 308.800 C 368.600 308.800,368.800 308.600,368.800 307.800 C 368.800 307.000,369.000 306.800,369.800 306.800 C 370.600 306.800,370.800 306.600,370.800 305.800 C 370.800 305.000,371.000 304.800,371.800 304.800 C 372.600 304.800,372.800 304.600,372.800 303.800 C 372.800 303.000,373.000 302.800,373.800 302.800 C 374.672 302.800,374.800 302.625,374.800 301.429 C 374.800 300.443,375.081 299.837,375.800 299.271 C 376.350 298.839,376.800 298.106,376.800 297.642 C 376.800 297.011,377.050 296.800,377.800 296.800 C 378.731 296.800,378.800 296.665,378.800 294.828 C 378.800 293.087,378.906 292.841,379.700 292.728 C 380.526 292.611,380.610 292.361,380.718 289.700 C 380.830 286.919,380.875 286.800,381.818 286.800 L 382.800 286.800 382.800 270.982 L 382.800 255.164 381.800 254.164 C 380.912 253.276,380.800 252.829,380.800 250.182 C 380.800 247.282,380.773 247.200,379.818 247.200 C 378.875 247.200,378.830 247.081,378.718 244.300 C 378.610 241.639,378.526 241.389,377.700 241.272 C 376.906 241.159,376.800 240.913,376.800 239.172 C 376.800 237.335,376.731 237.200,375.800 237.200 C 374.867 237.200,374.800 237.067,374.800 235.200 C 374.800 233.333,374.733 233.200,373.800 233.200 C 372.867 233.200,372.800 233.067,372.800 231.200 C 372.800 229.333,372.733 229.200,371.800 229.200 C 370.867 229.200,370.800 229.067,370.800 227.200 C 370.800 225.333,370.733 225.200,369.800 225.200 C 368.995 225.200,368.800 225.001,368.800 224.182 C 368.800 223.622,368.350 222.714,367.800 222.164 C 367.250 221.614,366.800 220.722,366.800 220.182 C 366.800 219.407,366.594 219.200,365.823 219.200 C 364.960 219.200,364.832 219.002,364.723 217.500 C 364.628 216.187,364.395 215.710,363.700 215.405 C 363.148 215.163,362.800 214.660,362.800 214.105 C 362.800 213.406,362.572 213.200,361.800 213.200 C 361.050 213.200,360.800 212.989,360.800 212.358 C 360.800 211.894,360.361 211.170,359.825 210.748 C 359.230 210.280,358.801 209.477,358.725 208.690 C 358.629 207.704,358.388 207.370,357.700 207.272 C 357.049 207.180,356.800 206.876,356.800 206.172 C 356.800 205.402,356.592 205.200,355.800 205.200 C 355.000 205.200,354.800 205.000,354.800 204.200 C 354.800 203.400,354.600 203.200,353.800 203.200 C 353.000 203.200,352.800 203.000,352.800 202.200 C 352.800 201.650,352.620 201.200,352.400 201.200 C 352.180 201.200,352.000 200.660,352.000 200.000 C 352.000 199.340,352.180 198.800,352.400 198.800 C 352.620 198.800,352.800 198.350,352.800 197.800 C 352.800 197.000,353.000 196.800,353.800 196.800 C 354.600 196.800,354.800 196.600,354.800 195.800 C 354.800 195.000,355.000 194.800,355.800 194.800 C 356.592 194.800,356.800 194.598,356.800 193.828 C 356.800 193.124,357.049 192.820,357.700 192.728 C 358.468 192.619,358.618 192.321,358.722 190.700 C 358.832 188.985,358.939 188.800,359.822 188.800 C 360.599 188.800,360.800 188.594,360.800 187.800 C 360.800 187.000,361.000 186.800,361.800 186.800 C 362.554 186.800,362.800 186.590,362.800 185.946 C 362.800 185.476,363.250 184.675,363.800 184.165 C 364.445 183.567,364.800 182.806,364.800 182.019 C 364.800 180.985,364.952 180.800,365.800 180.800 C 366.595 180.800,366.800 180.599,366.800 179.818 C 366.800 179.278,367.250 178.386,367.800 177.836 C 368.350 177.286,368.800 176.378,368.800 175.818 C 368.800 174.999,368.995 174.800,369.800 174.800 C 370.733 174.800,370.800 174.667,370.800 172.800 C 370.800 170.933,370.867 170.800,371.800 170.800 C 372.733 170.800,372.800 170.667,372.800 168.800 C 372.800 166.933,372.867 166.800,373.800 166.800 C 374.733 166.800,374.800 166.667,374.800 164.800 C 374.800 162.933,374.867 162.800,375.800 162.800 C 376.731 162.800,376.800 162.665,376.800 160.828 C 376.800 159.087,376.906 158.841,377.700 158.728 C 378.526 158.611,378.610 158.361,378.718 155.700 C 378.830 152.919,378.875 152.800,379.818 152.800 C 380.783 152.800,380.800 152.742,380.800 149.429 C 380.800 146.310,380.875 145.999,381.800 145.271 L 382.800 144.485 382.800 128.842 L 382.800 113.200 381.818 113.200 C 380.875 113.200,380.830 113.081,380.718 110.300 C 380.610 107.639,380.526 107.389,379.700 107.272 C 378.906 107.159,378.800 106.913,378.800 105.172 C 378.800 103.335,378.731 103.200,377.800 103.200 C 377.050 103.200,376.800 102.989,376.800 102.358 C 376.800 101.894,376.350 101.161,375.800 100.729 C 375.081 100.163,374.800 99.557,374.800 98.571 C 374.800 97.375,374.672 97.200,373.800 97.200 C 373.000 97.200,372.800 97.000,372.800 96.200 C 372.800 95.400,372.600 95.200,371.800 95.200 C 371.000 95.200,370.800 95.000,370.800 94.200 C 370.800 93.400,370.600 93.200,369.800 93.200 C 369.000 93.200,368.800 93.000,368.800 92.200 C 368.800 91.400,368.600 91.200,367.800 91.200 C 367.000 91.200,366.800 91.000,366.800 90.200 C 366.800 89.405,366.599 89.200,365.818 89.200 C 365.278 89.200,364.386 88.750,363.836 88.200 C 363.286 87.650,362.378 87.200,361.818 87.200 C 360.999 87.200,360.800 87.005,360.800 86.200 C 360.800 85.267,360.667 85.200,358.800 85.200 C 356.933 85.200,356.800 85.133,356.800 84.200 C 356.800 83.267,356.667 83.200,354.800 83.200 C 352.933 83.200,352.800 83.133,352.800 82.200 C 352.800 81.267,352.667 81.200,350.800 81.200 C 348.933 81.200,348.800 81.133,348.800 80.200 C 348.800 79.222,348.733 79.200,345.800 79.200 C 342.867 79.200,342.800 79.178,342.800 78.200 C 342.800 77.200,342.798 77.200,338.828 77.200 C 335.013 77.200,334.851 77.164,334.728 76.300 C 334.602 75.412,334.508 75.399,327.837 75.290 C 321.220 75.182,321.053 75.159,320.156 74.190 L 319.238 73.200 306.000 73.200 L 292.762 73.200 291.835 74.200 L 290.908 75.200 282.854 75.200 C 274.947 75.200,274.800 75.185,274.800 74.363 C 274.800 73.862,274.479 73.441,274.000 73.316 C 273.358 73.148,273.200 72.770,273.200 71.399 C 273.200 70.020,273.008 69.566,272.200 69.037 C 271.463 68.554,271.200 68.030,271.200 67.041 C 271.200 64.596,270.753 63.200,269.972 63.200 C 269.387 63.200,269.220 62.826,269.122 61.300 C 269.018 59.679,268.868 59.381,268.100 59.272 C 267.325 59.162,267.200 58.904,267.200 57.418 C 267.200 56.018,267.011 55.568,266.200 55.037 C 265.447 54.543,265.200 54.034,265.200 52.973 C 265.200 52.025,264.873 51.213,264.200 50.487 C 263.650 49.893,263.200 49.003,263.200 48.507 C 263.200 48.012,262.795 47.143,262.300 46.578 C 261.805 46.012,261.309 45.066,261.197 44.475 C 261.060 43.745,260.707 43.359,260.097 43.272 C 259.372 43.169,259.200 42.888,259.200 41.805 C 259.200 39.972,258.845 39.200,258.003 39.200 C 257.463 39.200,257.224 38.753,257.014 37.354 C 256.816 36.033,256.525 35.453,255.991 35.314 C 255.581 35.206,255.190 34.732,255.122 34.259 C 255.037 33.663,254.670 33.362,253.921 33.275 C 252.941 33.162,252.831 32.979,252.721 31.275 C 252.618 29.679,252.466 29.381,251.700 29.272 C 251.049 29.180,250.800 28.876,250.800 28.172 C 250.800 27.402,250.592 27.200,249.800 27.200 C 249.000 27.200,248.800 27.000,248.800 26.200 C 248.800 25.400,248.600 25.200,247.800 25.200 C 246.995 25.200,246.800 25.001,246.800 24.182 C 246.800 23.622,246.363 22.727,245.829 22.193 C 245.295 21.659,244.800 20.812,244.729 20.311 C 244.646 19.722,244.282 19.355,243.700 19.272 C 243.049 19.180,242.800 18.876,242.800 18.172 C 242.800 17.402,242.592 17.200,241.800 17.200 C 241.000 17.200,240.800 17.000,240.800 16.200 C 240.800 15.408,240.598 15.200,239.828 15.200 C 239.126 15.200,238.820 14.951,238.728 14.304 C 238.654 13.787,238.262 13.344,237.801 13.256 C 237.362 13.172,236.605 12.675,236.120 12.152 C 235.563 11.551,234.789 11.200,234.019 11.200 C 232.985 11.200,232.800 11.048,232.800 10.200 C 232.800 9.400,232.600 9.200,231.800 9.200 C 231.000 9.200,230.800 9.000,230.800 8.200 C 230.800 7.328,230.625 7.200,229.429 7.200 C 228.443 7.200,227.837 6.919,227.271 6.200 C 226.839 5.650,226.118 5.200,225.670 5.200 C 225.130 5.200,224.813 4.897,224.728 4.300 C 224.620 3.539,224.319 3.382,222.787 3.282 C 221.366 3.189,220.890 2.973,220.587 2.282 C 220.252 1.518,219.840 1.384,217.500 1.282 C 215.459 1.192,214.800 1.022,214.800 0.582 C 214.800 0.083,212.682 0.000,200.000 0.000 C 187.309 0.000,185.200 0.083,185.200 0.582 M205.405 19.700 C 205.750 20.486,206.143 20.615,208.500 20.718 C 211.068 20.831,211.200 20.885,211.200 21.818 C 211.200 22.730,211.343 22.800,213.200 22.800 C 215.067 22.800,215.200 22.867,215.200 23.800 C 215.200 24.595,215.401 24.800,216.182 24.800 C 216.722 24.800,217.614 25.250,218.164 25.800 C 218.714 26.350,219.622 26.800,220.182 26.800 C 221.001 26.800,221.200 26.995,221.200 27.800 C 221.200 28.600,221.400 28.800,222.200 28.800 C 223.000 28.800,223.200 29.000,223.200 29.800 C 223.200 30.600,223.400 30.800,224.200 30.800 C 225.000 30.800,225.200 31.000,225.200 31.800 C 225.200 32.600,225.400 32.800,226.200 32.800 C 227.000 32.800,227.200 33.000,227.200 33.800 C 227.200 34.600,227.400 34.800,228.200 34.800 C 229.000 34.800,229.200 35.000,229.200 35.800 C 229.200 36.600,229.400 36.800,230.200 36.800 C 231.005 36.800,231.200 36.999,231.200 37.818 C 231.200 38.378,231.650 39.286,232.200 39.836 C 232.750 40.386,233.200 41.278,233.200 41.818 C 233.200 42.599,233.405 42.800,234.200 42.800 C 235.000 42.800,235.200 43.000,235.200 43.800 C 235.200 44.600,235.400 44.800,236.200 44.800 C 237.133 44.800,237.200 44.933,237.200 46.800 C 237.200 48.667,237.267 48.800,238.200 48.800 C 239.005 48.800,239.200 48.999,239.200 49.818 C 239.200 50.378,239.650 51.286,240.200 51.836 C 240.750 52.386,241.200 53.278,241.200 53.818 C 241.200 54.599,241.405 54.800,242.200 54.800 C 243.133 54.800,243.200 54.933,243.200 56.800 C 243.200 58.667,243.267 58.800,244.200 58.800 C 245.133 58.800,245.200 58.933,245.200 60.800 C 245.200 62.667,245.267 62.800,246.200 62.800 C 247.122 62.800,247.200 62.944,247.200 64.642 C 247.200 66.121,247.393 66.637,248.180 67.255 C 248.956 67.866,249.184 68.459,249.280 70.113 C 249.379 71.831,249.559 72.270,250.300 72.595 C 251.052 72.925,251.200 73.303,251.200 74.895 C 251.200 76.660,251.273 76.800,252.200 76.800 C 253.145 76.800,253.200 76.920,253.200 79.000 L 253.200 81.200 249.358 81.200 C 245.735 81.200,245.470 81.257,244.729 82.200 C 244.001 83.125,243.690 83.200,240.571 83.200 C 237.242 83.200,237.200 83.212,237.200 84.200 C 237.200 85.178,237.135 85.200,234.182 85.200 C 231.511 85.200,231.051 85.313,230.182 86.182 C 229.367 86.997,228.742 87.184,226.500 87.282 C 224.158 87.384,223.749 87.517,223.412 88.284 C 223.073 89.058,222.671 89.183,220.212 89.284 C 217.642 89.390,217.389 89.477,217.272 90.300 C 217.157 91.108,216.921 91.200,214.953 91.200 C 213.130 91.200,212.606 91.368,211.835 92.200 C 211.103 92.990,210.518 93.200,209.054 93.200 C 207.343 93.200,207.200 93.277,207.200 94.200 C 207.200 95.178,207.133 95.200,204.200 95.200 C 201.267 95.200,201.200 95.222,201.200 96.200 C 201.200 97.044,201.013 97.200,200.000 97.200 C 198.987 97.200,198.800 97.044,198.800 96.200 C 198.800 95.222,198.733 95.200,195.800 95.200 C 192.867 95.200,192.800 95.178,192.800 94.200 C 192.800 93.268,192.665 93.200,190.818 93.200 C 189.238 93.200,188.634 92.998,187.836 92.200 C 187.047 91.411,186.431 91.200,184.913 91.200 C 183.302 91.200,182.926 91.054,182.595 90.300 C 182.252 89.519,181.855 89.385,179.588 89.284 C 177.336 89.183,176.922 89.046,176.588 88.284 C 176.243 87.499,175.856 87.387,173.116 87.283 C 170.389 87.180,169.942 87.053,169.258 86.183 C 168.566 85.304,168.185 85.200,165.642 85.200 C 162.877 85.200,162.800 85.173,162.800 84.200 C 162.800 83.212,162.758 83.200,159.429 83.200 C 156.310 83.200,155.999 83.125,155.271 82.200 C 154.530 81.257,154.265 81.200,150.642 81.200 L 146.800 81.200 146.800 79.000 C 146.800 76.920,146.855 76.800,147.800 76.800 C 148.733 76.800,148.800 76.667,148.800 74.800 C 148.800 73.700,148.967 72.800,149.171 72.800 C 150.194 72.800,150.800 71.449,150.800 69.171 C 150.800 66.909,150.846 66.800,151.800 66.800 C 152.733 66.800,152.800 66.667,152.800 64.800 C 152.800 62.933,152.867 62.800,153.800 62.800 C 154.733 62.800,154.800 62.667,154.800 60.800 C 154.800 58.933,154.867 58.800,155.800 58.800 C 156.733 58.800,156.800 58.667,156.800 56.800 C 156.800 54.933,156.867 54.800,157.800 54.800 C 158.672 54.800,158.800 54.625,158.800 53.429 C 158.800 52.443,159.081 51.837,159.800 51.271 C 160.350 50.839,160.800 50.106,160.800 49.642 C 160.800 49.011,161.050 48.800,161.800 48.800 C 162.733 48.800,162.800 48.667,162.800 46.800 C 162.800 44.933,162.867 44.800,163.800 44.800 C 164.600 44.800,164.800 44.600,164.800 43.800 C 164.800 43.000,165.000 42.800,165.800 42.800 C 166.672 42.800,166.800 42.625,166.800 41.429 C 166.800 40.443,167.081 39.837,167.800 39.271 C 168.350 38.839,168.800 38.106,168.800 37.642 C 168.800 37.011,169.050 36.800,169.800 36.800 C 170.600 36.800,170.800 36.600,170.800 35.800 C 170.800 35.000,171.000 34.800,171.800 34.800 C 172.600 34.800,172.800 34.600,172.800 33.800 C 172.800 33.000,173.000 32.800,173.800 32.800 C 174.600 32.800,174.800 32.600,174.800 31.800 C 174.800 31.000,175.000 30.800,175.800 30.800 C 176.600 30.800,176.800 30.600,176.800 29.800 C 176.800 29.000,177.000 28.800,177.800 28.800 C 178.600 28.800,178.800 28.600,178.800 27.800 C 178.800 26.995,178.999 26.800,179.818 26.800 C 180.378 26.800,181.286 26.350,181.836 25.800 C 182.386 25.250,183.278 24.800,183.818 24.800 C 184.599 24.800,184.800 24.595,184.800 23.800 C 184.800 22.867,184.933 22.800,186.800 22.800 C 188.667 22.800,188.800 22.733,188.800 21.800 C 188.800 20.846,188.909 20.800,191.171 20.800 C 193.449 20.800,194.800 20.194,194.800 19.171 C 194.800 18.238,204.986 18.745,205.405 19.700 M115.200 95.800 C 115.200 96.733,115.333 96.800,117.200 96.800 C 119.584 96.800,120.026 98.143,118.200 99.835 C 117.276 100.691,117.200 101.036,117.200 104.352 C 117.200 107.705,117.134 107.994,116.200 108.729 C 115.257 109.470,115.200 109.735,115.200 113.358 C 115.200 115.471,115.033 117.200,114.829 117.200 C 113.512 117.200,113.200 118.471,113.200 123.829 L 113.200 129.200 112.200 129.200 L 111.200 129.200 111.200 135.571 C 111.200 141.890,111.192 141.948,110.200 142.729 C 109.562 143.230,109.200 143.918,109.200 144.626 C 109.200 146.178,108.143 147.200,106.538 147.200 C 105.377 147.200,105.200 147.333,105.200 148.200 C 105.200 149.000,105.000 149.200,104.200 149.200 C 103.400 149.200,103.200 149.400,103.200 150.200 C 103.200 151.048,103.015 151.200,101.981 151.200 C 101.194 151.200,100.433 151.555,99.835 152.200 C 99.325 152.750,98.524 153.200,98.054 153.200 C 97.410 153.200,97.200 153.446,97.200 154.200 C 97.200 155.000,97.000 155.200,96.200 155.200 C 95.400 155.200,95.200 155.400,95.200 156.200 C 95.200 156.950,94.989 157.200,94.358 157.200 C 93.894 157.200,93.170 157.639,92.748 158.175 C 92.280 158.770,91.477 159.199,90.690 159.275 C 89.704 159.371,89.370 159.612,89.272 160.300 C 89.180 160.951,88.876 161.200,88.172 161.200 C 87.402 161.200,87.200 161.408,87.200 162.200 C 87.200 163.000,87.000 163.200,86.200 163.200 C 85.400 163.200,85.200 163.400,85.200 164.200 C 85.200 165.000,85.000 165.200,84.200 165.200 C 83.400 165.200,83.200 165.400,83.200 166.200 C 83.200 167.005,83.001 167.200,82.182 167.200 C 81.622 167.200,80.727 167.637,80.193 168.171 C 79.659 168.705,78.812 169.200,78.311 169.271 C 77.722 169.354,77.355 169.718,77.272 170.300 C 77.180 170.951,76.876 171.200,76.172 171.200 C 75.402 171.200,75.200 171.408,75.200 172.200 C 75.200 173.000,75.000 173.200,74.200 173.200 C 73.400 173.200,73.200 173.400,73.200 174.200 C 73.200 175.000,73.000 175.200,72.200 175.200 C 71.400 175.200,71.200 175.400,71.200 176.200 C 71.200 177.000,71.000 177.200,70.200 177.200 C 69.400 177.200,69.200 177.400,69.200 178.200 C 69.200 179.000,69.000 179.200,68.200 179.200 C 67.400 179.200,67.200 179.400,67.200 180.200 C 67.200 181.000,67.000 181.200,66.200 181.200 C 65.400 181.200,65.200 181.400,65.200 182.200 C 65.200 183.000,65.000 183.200,64.200 183.200 C 63.390 183.200,63.189 183.409,63.140 184.300 C 63.103 184.978,62.988 184.710,62.840 183.600 C 62.660 182.249,62.375 181.701,61.700 181.405 C 61.148 181.163,60.800 180.660,60.800 180.105 C 60.800 179.406,60.572 179.200,59.800 179.200 C 59.000 179.200,58.800 179.000,58.800 178.200 C 58.800 177.400,58.600 177.200,57.800 177.200 C 56.928 177.200,56.800 177.025,56.800 175.829 C 56.800 174.527,55.978 173.200,55.171 173.200 C 54.967 173.200,54.800 172.750,54.800 172.200 C 54.800 171.400,54.600 171.200,53.800 171.200 C 52.995 171.200,52.800 171.001,52.800 170.182 C 52.800 169.622,52.350 168.714,51.800 168.164 C 51.250 167.614,50.800 166.722,50.800 166.182 C 50.800 165.407,50.594 165.200,49.822 165.200 C 48.939 165.200,48.832 165.015,48.722 163.300 C 48.618 161.679,48.468 161.381,47.700 161.272 C 47.043 161.179,46.800 160.876,46.800 160.154 C 46.800 159.609,46.350 158.714,45.800 158.164 C 45.250 157.614,44.800 156.714,44.800 156.164 C 44.800 155.614,44.360 154.724,43.822 154.186 C 43.114 153.478,42.810 152.682,42.722 151.304 C 42.618 149.679,42.468 149.381,41.700 149.272 C 40.918 149.161,40.800 148.907,40.800 147.330 C 40.800 145.871,40.604 145.361,39.800 144.729 C 38.875 144.001,38.800 143.690,38.800 140.571 C 38.800 137.242,38.788 137.200,37.800 137.200 L 36.800 137.200 36.800 130.018 C 36.800 122.891,36.808 122.829,37.800 121.836 C 38.602 121.034,38.800 120.438,38.800 118.818 C 38.800 116.932,38.865 116.800,39.800 116.800 C 40.733 116.800,40.800 116.667,40.800 114.800 C 40.800 112.933,40.867 112.800,41.800 112.800 C 42.600 112.800,42.800 112.600,42.800 111.800 C 42.800 111.000,43.000 110.800,43.800 110.800 C 44.600 110.800,44.800 110.600,44.800 109.800 C 44.800 109.000,45.000 108.800,45.800 108.800 C 46.600 108.800,46.800 108.600,46.800 107.800 C 46.800 107.000,47.000 106.800,47.800 106.800 C 48.600 106.800,48.800 106.600,48.800 105.800 C 48.800 105.050,49.011 104.800,49.642 104.800 C 50.106 104.800,50.839 104.350,51.271 103.800 C 51.837 103.081,52.443 102.800,53.429 102.800 C 54.625 102.800,54.800 102.672,54.800 101.800 C 54.800 100.865,54.932 100.800,56.818 100.800 C 58.438 100.800,59.034 100.602,59.836 99.800 C 60.611 99.026,61.248 98.800,62.661 98.800 C 64.123 98.800,64.639 98.605,65.261 97.813 C 65.988 96.889,66.310 96.819,70.319 96.713 C 74.414 96.605,74.606 96.561,74.728 95.700 L 74.856 94.800 95.028 94.800 L 115.200 94.800 115.200 95.800 M325.272 95.700 C 325.393 96.554,325.600 96.606,329.296 96.714 C 332.824 96.818,333.286 96.922,334.178 97.814 C 334.963 98.599,335.571 98.800,337.164 98.800 C 338.764 98.800,339.364 99.000,340.164 99.800 C 340.966 100.602,341.562 100.800,343.182 100.800 C 345.068 100.800,345.200 100.865,345.200 101.800 C 345.200 102.595,345.401 102.800,346.182 102.800 C 346.722 102.800,347.614 103.250,348.164 103.800 C 348.714 104.350,349.622 104.800,350.182 104.800 C 351.001 104.800,351.200 104.995,351.200 105.800 C 351.200 106.600,351.400 106.800,352.200 106.800 C 353.000 106.800,353.200 107.000,353.200 107.800 C 353.200 108.600,353.400 108.800,354.200 108.800 C 355.000 108.800,355.200 109.000,355.200 109.800 C 355.200 110.600,355.400 110.800,356.200 110.800 C 357.000 110.800,357.200 111.000,357.200 111.800 C 357.200 112.600,357.400 112.800,358.200 112.800 C 359.133 112.800,359.200 112.933,359.200 114.800 C 359.200 116.667,359.267 116.800,360.200 116.800 C 361.154 116.800,361.200 116.909,361.200 119.171 C 361.200 121.449,361.806 122.800,362.829 122.800 C 363.043 122.800,363.200 125.836,363.200 130.000 L 363.200 137.200 362.200 137.200 C 361.212 137.200,361.200 137.242,361.200 140.571 C 361.200 143.690,361.125 144.001,360.200 144.729 C 359.396 145.361,359.200 145.871,359.200 147.330 C 359.200 148.907,359.082 149.161,358.300 149.272 C 357.544 149.380,357.380 149.685,357.273 151.179 C 357.183 152.442,356.864 153.220,356.173 153.860 C 355.552 154.435,355.200 155.203,355.200 155.981 C 355.200 156.651,355.033 157.200,354.829 157.200 C 354.028 157.200,353.200 158.523,353.200 159.801 C 353.200 160.890,353.029 161.169,352.300 161.272 C 351.532 161.381,351.382 161.679,351.278 163.300 C 351.168 165.015,351.061 165.200,350.178 165.200 C 349.446 165.200,349.200 165.415,349.200 166.054 C 349.200 166.524,348.750 167.325,348.200 167.835 C 347.555 168.433,347.200 169.194,347.200 169.981 C 347.200 171.015,347.048 171.200,346.200 171.200 C 345.428 171.200,345.200 171.406,345.200 172.105 C 345.200 172.660,344.852 173.163,344.300 173.405 C 343.605 173.710,343.372 174.187,343.277 175.500 C 343.168 177.002,343.040 177.200,342.177 177.200 C 341.402 177.200,341.200 177.406,341.200 178.200 C 341.200 179.000,341.000 179.200,340.200 179.200 C 339.408 179.200,339.200 179.402,339.200 180.172 C 339.200 180.876,338.951 181.180,338.300 181.272 C 337.623 181.368,337.339 181.746,337.153 182.800 C 337.017 183.570,336.882 183.975,336.853 183.700 C 336.824 183.425,336.350 183.200,335.800 183.200 C 335.000 183.200,334.800 183.000,334.800 182.200 C 334.800 181.400,334.600 181.200,333.800 181.200 C 333.000 181.200,332.800 181.000,332.800 180.200 C 332.800 179.400,332.600 179.200,331.800 179.200 C 331.000 179.200,330.800 179.000,330.800 178.200 C 330.800 177.400,330.600 177.200,329.800 177.200 C 329.000 177.200,328.800 177.000,328.800 176.200 C 328.800 175.400,328.600 175.200,327.800 175.200 C 327.000 175.200,326.800 175.000,326.800 174.200 C 326.800 173.400,326.600 173.200,325.800 173.200 C 325.000 173.200,324.800 173.000,324.800 172.200 C 324.800 171.408,324.598 171.200,323.828 171.200 C 323.124 171.200,322.820 170.951,322.728 170.300 C 322.645 169.718,322.278 169.354,321.689 169.271 C 321.188 169.200,320.341 168.705,319.807 168.171 C 319.273 167.637,318.378 167.200,317.818 167.200 C 316.999 167.200,316.800 167.005,316.800 166.200 C 316.800 165.400,316.600 165.200,315.800 165.200 C 315.000 165.200,314.800 165.000,314.800 164.200 C 314.800 163.400,314.600 163.200,313.800 163.200 C 313.000 163.200,312.800 163.000,312.800 162.200 C 312.800 161.408,312.598 161.200,311.828 161.200 C 311.124 161.200,310.820 160.951,310.728 160.300 C 310.630 159.612,310.296 159.371,309.310 159.275 C 308.523 159.199,307.720 158.770,307.252 158.175 C 306.830 157.639,306.106 157.200,305.642 157.200 C 305.017 157.200,304.800 156.950,304.800 156.228 C 304.800 155.524,304.551 155.220,303.900 155.128 C 303.322 155.046,302.954 154.678,302.872 154.100 C 302.778 153.437,302.477 153.200,301.730 153.200 C 301.124 153.200,300.398 152.797,299.929 152.200 C 299.487 151.638,298.728 151.200,298.199 151.200 C 297.525 151.200,297.219 150.943,297.128 150.300 C 297.036 149.656,296.688 149.364,295.900 149.273 C 295.036 149.174,294.800 148.938,294.800 148.173 C 294.800 147.291,294.637 147.200,293.052 147.200 L 291.303 147.200 291.038 145.200 C 290.821 143.568,290.628 143.200,289.986 143.200 C 289.242 143.200,289.200 142.901,289.200 137.650 C 289.200 131.141,288.962 129.568,287.939 129.300 C 287.276 129.126,287.200 128.647,287.200 124.609 C 287.200 120.471,287.120 119.994,286.200 118.638 C 285.349 117.384,285.199 116.705,285.195 114.082 C 285.188 110.237,284.924 109.200,283.953 109.200 C 283.269 109.200,283.200 108.856,283.200 105.446 C 283.200 101.883,283.149 101.659,282.200 101.037 C 281.380 100.499,281.200 100.060,281.200 98.591 L 281.200 96.800 283.000 96.800 C 284.653 96.800,284.800 96.719,284.800 95.800 L 284.800 94.800 304.972 94.800 L 325.144 94.800 325.272 95.700 M146.729 101.800 C 147.429 102.690,147.812 102.800,150.212 102.800 C 152.574 102.800,153.023 102.924,153.835 103.800 C 154.676 104.707,155.061 104.800,157.981 104.800 C 161.148 104.800,161.200 104.816,161.200 105.800 C 161.200 106.778,161.267 106.800,164.200 106.800 C 167.133 106.800,167.200 106.822,167.200 107.800 C 167.200 108.774,167.280 108.802,170.300 108.874 C 172.781 108.933,172.981 108.977,171.300 109.095 C 169.379 109.229,169.200 109.325,169.200 110.221 C 169.200 111.129,169.055 111.200,167.200 111.200 C 165.333 111.200,165.200 111.267,165.200 112.200 C 165.200 113.133,165.067 113.200,163.200 113.200 C 161.345 113.200,161.200 113.271,161.200 114.178 C 161.200 115.061,161.015 115.168,159.300 115.278 C 157.693 115.381,157.381 115.536,157.275 116.279 C 157.169 117.021,156.856 117.177,155.275 117.279 C 153.679 117.382,153.381 117.534,153.272 118.300 C 153.179 118.957,152.876 119.200,152.154 119.200 C 151.609 119.200,150.714 119.650,150.164 120.200 C 149.614 120.750,148.722 121.200,148.182 121.200 C 147.401 121.200,147.200 121.405,147.200 122.200 C 147.200 123.133,147.067 123.200,145.200 123.200 C 143.333 123.200,143.200 123.267,143.200 124.200 C 143.200 125.133,143.067 125.200,141.200 125.200 C 139.333 125.200,139.200 125.267,139.200 126.200 C 139.200 127.005,139.001 127.200,138.182 127.200 C 137.622 127.200,136.714 127.650,136.164 128.200 C 135.614 128.750,134.734 129.200,134.208 129.200 C 133.473 129.200,133.215 129.454,133.087 130.300 C 132.967 131.087,132.903 130.925,132.860 129.729 C 132.812 128.382,132.994 127.905,133.800 127.271 C 134.754 126.521,134.800 126.289,134.800 122.271 C 134.800 118.254,134.846 118.022,135.800 117.271 C 136.743 116.530,136.800 116.265,136.800 112.642 C 136.800 108.811,136.803 108.800,137.800 108.800 L 138.800 108.800 138.800 104.800 L 138.800 100.800 142.371 100.800 C 145.704 100.800,145.994 100.867,146.729 101.800 M260.469 101.462 C 261.066 102.003,261.200 102.736,261.200 105.462 C 261.200 108.756,261.213 108.800,262.200 108.800 L 263.200 108.800 263.200 112.818 C 263.200 116.571,263.266 116.902,264.200 117.836 C 265.133 118.770,265.200 119.103,265.200 122.836 C 265.200 126.570,265.267 126.903,266.200 127.836 C 266.750 128.386,267.200 128.977,267.200 129.149 C 267.200 129.824,264.581 129.029,263.883 128.142 C 263.406 127.536,262.724 127.200,261.971 127.200 C 260.989 127.200,260.800 127.039,260.800 126.200 C 260.800 125.285,260.650 125.200,259.043 125.200 C 257.503 125.200,257.256 125.077,257.036 124.200 C 256.810 123.301,256.584 123.200,254.792 123.200 C 252.934 123.200,252.800 123.133,252.800 122.200 C 252.800 121.328,252.625 121.200,251.429 121.200 C 250.443 121.200,249.837 120.919,249.271 120.200 C 248.839 119.650,248.148 119.200,247.737 119.200 C 247.326 119.200,246.812 118.795,246.595 118.300 C 246.291 117.608,245.812 117.372,244.525 117.278 C 243.151 117.178,242.827 116.999,242.725 116.278 C 242.619 115.536,242.306 115.381,240.700 115.278 C 238.985 115.168,238.800 115.061,238.800 114.178 C 238.800 113.271,238.655 113.200,236.800 113.200 C 234.933 113.200,234.800 113.133,234.800 112.200 C 234.800 111.267,234.667 111.200,232.800 111.200 C 230.945 111.200,230.800 111.129,230.800 110.221 C 230.800 109.325,230.621 109.229,228.700 109.095 C 227.019 108.977,227.219 108.933,229.700 108.874 C 232.720 108.802,232.800 108.774,232.800 107.800 C 232.800 106.822,232.867 106.800,235.800 106.800 C 238.733 106.800,238.800 106.778,238.800 105.800 C 238.800 104.816,238.852 104.800,242.019 104.800 C 244.939 104.800,245.324 104.707,246.165 103.800 C 246.977 102.924,247.426 102.800,249.788 102.800 C 252.188 102.800,252.571 102.690,253.271 101.800 C 254.267 100.534,259.188 100.303,260.469 101.462 M203.835 121.800 C 204.609 122.635,205.128 122.800,206.981 122.800 C 209.081 122.800,209.200 122.854,209.200 123.800 C 209.200 124.733,209.333 124.800,211.200 124.800 C 213.067 124.800,213.200 124.867,213.200 125.800 C 213.200 126.733,213.333 126.800,215.200 126.800 C 217.067 126.800,217.200 126.867,217.200 127.800 C 217.200 128.733,217.333 128.800,219.200 128.800 C 221.067 128.800,221.200 128.867,221.200 129.800 C 221.200 130.733,221.333 130.800,223.200 130.800 C 225.067 130.800,225.200 130.867,225.200 131.800 C 225.200 132.733,225.333 132.800,227.200 132.800 C 229.067 132.800,229.200 132.867,229.200 133.800 C 229.200 134.733,229.333 134.800,231.200 134.800 C 233.067 134.800,233.200 134.867,233.200 135.800 C 233.200 136.733,233.333 136.800,235.200 136.800 C 237.067 136.800,237.200 136.867,237.200 137.800 C 237.200 138.672,237.375 138.800,238.571 138.800 C 239.557 138.800,240.163 139.081,240.729 139.800 C 241.161 140.350,241.852 140.800,242.263 140.800 C 242.674 140.800,243.188 141.205,243.405 141.700 C 243.710 142.395,244.187 142.628,245.500 142.723 C 247.002 142.832,247.200 142.960,247.200 143.823 C 247.200 144.729,247.346 144.800,249.200 144.800 C 251.067 144.800,251.200 144.867,251.200 145.800 C 251.200 146.595,251.401 146.800,252.182 146.800 C 252.722 146.800,253.614 147.250,254.164 147.800 C 254.714 148.350,255.622 148.800,256.182 148.800 C 257.001 148.800,257.200 148.995,257.200 149.800 C 257.200 150.733,257.333 150.800,259.200 150.800 C 261.067 150.800,261.200 150.867,261.200 151.800 C 261.200 152.592,261.402 152.800,262.172 152.800 C 262.876 152.800,263.180 153.049,263.272 153.700 C 263.381 154.468,263.679 154.618,265.300 154.722 C 267.015 154.832,267.200 154.939,267.200 155.822 C 267.200 156.586,267.409 156.800,268.153 156.800 C 268.782 156.800,269.181 157.083,269.324 157.630 C 269.443 158.086,269.911 158.556,270.364 158.675 C 271.165 158.884,271.190 159.171,271.294 169.545 C 271.400 180.164,271.403 180.201,272.300 180.595 L 273.200 180.990 273.200 200.000 L 273.200 219.010 272.300 219.405 C 271.403 219.799,271.400 219.836,271.294 230.473 L 271.187 241.146 270.294 241.273 C 269.722 241.354,269.354 241.724,269.272 242.300 C 269.180 242.951,268.876 243.200,268.172 243.200 C 267.408 243.200,267.200 243.409,267.200 244.178 C 267.200 245.061,267.015 245.168,265.300 245.278 C 263.679 245.382,263.381 245.532,263.272 246.300 C 263.180 246.951,262.876 247.200,262.172 247.200 C 261.402 247.200,261.200 247.408,261.200 248.200 C 261.200 249.133,261.067 249.200,259.200 249.200 C 257.333 249.200,257.200 249.267,257.200 250.200 C 257.200 251.048,257.015 251.200,255.981 251.200 C 255.194 251.200,254.433 251.555,253.835 252.200 C 253.325 252.750,252.524 253.200,252.054 253.200 C 251.410 253.200,251.200 253.446,251.200 254.200 C 251.200 255.133,251.067 255.200,249.200 255.200 C 247.345 255.200,247.200 255.271,247.200 256.178 C 247.200 257.061,247.015 257.168,245.300 257.278 C 243.679 257.382,243.381 257.532,243.272 258.300 C 243.187 258.897,242.870 259.200,242.330 259.200 C 241.882 259.200,241.161 259.650,240.729 260.200 C 240.163 260.919,239.557 261.200,238.571 261.200 C 237.375 261.200,237.200 261.328,237.200 262.200 C 237.200 263.133,237.067 263.200,235.200 263.200 C 233.333 263.200,233.200 263.267,233.200 264.200 C 233.200 265.133,233.067 265.200,231.200 265.200 C 229.333 265.200,229.200 265.267,229.200 266.200 C 229.200 267.133,229.067 267.200,227.200 267.200 C 225.333 267.200,225.200 267.267,225.200 268.200 C 225.200 269.133,225.067 269.200,223.200 269.200 C 221.333 269.200,221.200 269.267,221.200 270.200 C 221.200 271.133,221.067 271.200,219.200 271.200 C 217.333 271.200,217.200 271.267,217.200 272.200 C 217.200 273.133,217.067 273.200,215.200 273.200 C 213.333 273.200,213.200 273.267,213.200 274.200 C 213.200 275.133,213.067 275.200,211.200 275.200 C 209.333 275.200,209.200 275.267,209.200 276.200 C 209.200 277.154,209.091 277.200,206.829 277.200 C 204.551 277.200,203.200 277.806,203.200 278.829 C 203.200 279.033,201.760 279.200,200.000 279.200 C 198.240 279.200,196.800 279.033,196.800 278.829 C 196.800 277.806,195.449 277.200,193.171 277.200 C 190.909 277.200,190.800 277.154,190.800 276.200 C 190.800 275.267,190.667 275.200,188.800 275.200 C 186.933 275.200,186.800 275.133,186.800 274.200 C 186.800 273.267,186.667 273.200,184.800 273.200 C 182.933 273.200,182.800 273.133,182.800 272.200 C 182.800 271.267,182.667 271.200,180.800 271.200 C 178.933 271.200,178.800 271.133,178.800 270.200 C 178.800 269.267,178.667 269.200,176.800 269.200 C 174.933 269.200,174.800 269.133,174.800 268.200 C 174.800 267.267,174.667 267.200,172.800 267.200 C 170.933 267.200,170.800 267.133,170.800 266.200 C 170.800 265.267,170.667 265.200,168.800 265.200 C 166.933 265.200,166.800 265.133,166.800 264.200 C 166.800 263.267,166.667 263.200,164.800 263.200 C 162.933 263.200,162.800 263.133,162.800 262.200 C 162.800 261.328,162.625 261.200,161.429 261.200 C 160.443 261.200,159.837 260.919,159.271 260.200 C 158.839 259.650,158.148 259.200,157.737 259.200 C 157.326 259.200,156.812 258.795,156.595 258.300 C 156.290 257.605,155.813 257.372,154.500 257.277 C 152.998 257.168,152.800 257.040,152.800 256.177 C 152.800 255.271,152.654 255.200,150.800 255.200 C 148.933 255.200,148.800 255.133,148.800 254.200 C 148.800 253.405,148.599 253.200,147.818 253.200 C 147.278 253.200,146.386 252.750,145.836 252.200 C 145.286 251.650,144.378 251.200,143.818 251.200 C 142.999 251.200,142.800 251.005,142.800 250.200 C 142.800 249.267,142.667 249.200,140.800 249.200 C 138.933 249.200,138.800 249.133,138.800 248.200 C 138.800 247.408,138.598 247.200,137.828 247.200 C 137.124 247.200,136.820 246.951,136.728 246.300 C 136.619 245.532,136.321 245.382,134.700 245.278 C 132.985 245.168,132.800 245.061,132.800 244.178 C 132.800 243.409,132.592 243.200,131.828 243.200 C 131.124 243.200,130.820 242.951,130.728 242.300 C 130.646 241.722,130.278 241.354,129.700 241.272 L 128.800 241.144 128.800 231.154 L 128.800 221.164 127.800 220.164 L 126.800 219.164 126.800 200.000 L 126.800 180.836 127.800 179.836 L 128.800 178.836 128.800 168.865 C 128.800 159.111,128.818 158.889,129.630 158.676 C 130.086 158.557,130.557 158.086,130.676 157.630 C 130.819 157.083,131.218 156.800,131.847 156.800 C 132.591 156.800,132.800 156.586,132.800 155.822 C 132.800 154.939,132.985 154.832,134.700 154.722 C 136.321 154.618,136.619 154.468,136.728 153.700 C 136.820 153.049,137.124 152.800,137.828 152.800 C 138.598 152.800,138.800 152.592,138.800 151.800 C 138.800 150.867,138.933 150.800,140.800 150.800 C 142.667 150.800,142.800 150.733,142.800 149.800 C 142.800 149.050,143.011 148.800,143.642 148.800 C 144.106 148.800,144.839 148.350,145.271 147.800 C 145.837 147.081,146.443 146.800,147.429 146.800 C 148.625 146.800,148.800 146.672,148.800 145.800 C 148.800 144.867,148.933 144.800,150.800 144.800 C 152.667 144.800,152.800 144.733,152.800 143.800 C 152.800 142.928,152.975 142.800,154.171 142.800 C 155.473 142.800,156.800 141.978,156.800 141.171 C 156.800 140.967,157.179 140.800,157.642 140.800 C 158.106 140.800,158.839 140.350,159.271 139.800 C 159.837 139.081,160.443 138.800,161.429 138.800 C 162.625 138.800,162.800 138.672,162.800 137.800 C 162.800 136.867,162.933 136.800,164.800 136.800 C 166.667 136.800,166.800 136.733,166.800 135.800 C 166.800 134.867,166.933 134.800,168.800 134.800 C 170.667 134.800,170.800 134.733,170.800 133.800 C 170.800 132.867,170.933 132.800,172.800 132.800 C 174.667 132.800,174.800 132.733,174.800 131.800 C 174.800 130.867,174.933 130.800,176.800 130.800 C 178.667 130.800,178.800 130.733,178.800 129.800 C 178.800 128.867,178.933 128.800,180.800 128.800 C 182.667 128.800,182.800 128.733,182.800 127.800 C 182.800 126.867,182.933 126.800,184.800 126.800 C 186.667 126.800,186.800 126.733,186.800 125.800 C 186.800 124.867,186.933 124.800,188.800 124.800 C 190.667 124.800,190.800 124.733,190.800 123.800 C 190.800 122.866,190.932 122.800,192.814 122.800 C 194.426 122.800,195.006 122.609,195.714 121.842 C 197.079 120.367,202.481 120.339,203.835 121.800 M175.829 147.829 C 175.483 148.174,175.200 148.624,175.200 148.829 C 175.200 149.037,173.010 149.200,170.200 149.200 L 165.200 149.200 165.200 150.200 C 165.200 151.178,165.133 151.200,162.200 151.200 C 159.267 151.200,159.200 151.222,159.200 152.200 C 159.200 153.000,159.000 153.200,158.200 153.200 C 157.204 153.200,157.200 153.213,157.200 157.000 C 157.200 160.787,157.204 160.800,158.200 160.800 C 159.000 160.800,159.200 161.000,159.200 161.800 C 159.200 162.778,159.267 162.800,162.200 162.800 C 165.133 162.800,165.200 162.822,165.200 163.800 L 165.200 164.800 170.200 164.800 L 175.200 164.800 175.200 165.800 L 175.200 166.800 200.000 166.800 L 224.800 166.800 224.800 165.800 L 224.800 164.800 229.800 164.800 L 234.800 164.800 234.800 163.800 C 234.800 162.822,234.867 162.800,237.800 162.800 C 240.733 162.800,240.800 162.778,240.800 161.800 C 240.800 161.000,241.000 160.800,241.800 160.800 C 242.796 160.800,242.800 160.787,242.800 157.000 C 242.800 153.242,242.789 153.200,241.828 153.200 C 241.124 153.200,240.820 152.951,240.728 152.300 C 240.611 151.474,240.361 151.390,237.700 151.282 C 234.919 151.170,234.800 151.125,234.800 150.182 L 234.800 149.200 229.800 149.200 C 226.990 149.200,224.800 149.037,224.800 148.829 C 224.800 148.624,224.517 148.174,224.171 147.829 C 223.216 146.873,176.784 146.873,175.829 147.829 M157.200 176.769 L 157.200 188.338 158.431 189.569 C 159.434 190.573,159.988 190.800,161.431 190.800 C 163.051 190.800,163.200 190.884,163.200 191.800 L 163.200 192.800 167.200 192.800 L 171.200 192.800 171.200 193.800 L 171.200 194.800 180.530 194.800 L 189.861 194.800 190.800 195.800 L 191.739 196.800 200.000 196.800 L 208.261 196.800 209.200 195.800 L 210.139 194.800 219.470 194.800 L 228.800 194.800 228.800 193.800 L 228.800 192.800 232.800 192.800 L 236.800 192.800 236.800 191.800 C 236.800 190.884,236.949 190.800,238.569 190.800 C 240.012 190.800,240.566 190.573,241.569 189.569 L 242.800 188.338 242.800 176.769 L 242.800 165.200 239.000 165.200 C 235.229 165.200,235.200 165.207,235.200 166.185 C 235.200 167.152,235.134 167.172,231.500 167.285 C 228.112 167.390,227.767 167.475,227.409 168.292 C 227.026 169.163,226.845 169.186,219.409 169.292 C 211.951 169.398,211.792 169.418,211.405 170.300 L 211.010 171.200 200.000 171.200 L 188.990 171.200 188.595 170.300 C 188.208 169.418,188.049 169.398,180.591 169.292 C 173.155 169.186,172.974 169.163,172.591 168.292 C 172.233 167.475,171.888 167.390,168.500 167.285 C 164.866 167.172,164.800 167.152,164.800 166.185 C 164.800 165.207,164.771 165.200,161.000 165.200 L 157.200 165.200 157.200 176.769 M107.200 199.931 L 107.200 225.461 106.000 225.285 C 105.051 225.146,104.800 224.909,104.800 224.155 C 104.800 223.403,104.587 223.200,103.800 223.200 C 103.000 223.200,102.800 223.000,102.800 222.200 C 102.800 221.400,102.600 221.200,101.800 221.200 C 101.000 221.200,100.800 221.000,100.800 220.200 C 100.800 219.400,100.600 219.200,99.800 219.200 C 99.250 219.200,98.800 219.033,98.800 218.829 C 98.800 218.022,97.473 217.200,96.171 217.200 C 94.975 217.200,94.800 217.072,94.800 216.200 C 94.800 215.400,94.600 215.200,93.800 215.200 C 93.000 215.200,92.800 215.000,92.800 214.200 C 92.800 213.400,92.600 213.200,91.800 213.200 C 91.000 213.200,90.800 213.000,90.800 212.200 C 90.800 211.400,90.600 211.200,89.800 211.200 C 89.000 211.200,88.800 211.000,88.800 210.200 C 88.800 209.400,88.600 209.200,87.800 209.200 C 87.000 209.200,86.800 209.000,86.800 208.200 C 86.800 207.400,86.600 207.200,85.800 207.200 C 85.000 207.200,84.800 207.000,84.800 206.200 C 84.800 205.400,84.600 205.200,83.800 205.200 C 83.000 205.200,82.800 205.000,82.800 204.200 C 82.800 203.400,82.600 203.200,81.800 203.200 C 81.000 203.200,80.800 203.000,80.800 202.200 C 80.800 201.400,80.600 201.200,79.800 201.200 C 78.956 201.200,78.800 201.013,78.800 200.000 C 78.800 198.987,78.956 198.800,79.800 198.800 C 80.600 198.800,80.800 198.600,80.800 197.800 C 80.800 197.000,81.000 196.800,81.800 196.800 C 82.600 196.800,82.800 196.600,82.800 195.800 C 82.800 195.000,83.000 194.800,83.800 194.800 C 84.600 194.800,84.800 194.600,84.800 193.800 C 84.800 193.000,85.000 192.800,85.800 192.800 C 86.600 192.800,86.800 192.600,86.800 191.800 C 86.800 191.000,87.000 190.800,87.800 190.800 C 88.600 190.800,88.800 190.600,88.800 189.800 C 88.800 189.000,89.000 188.800,89.800 188.800 C 90.600 188.800,90.800 188.600,90.800 187.800 C 90.800 187.000,91.000 186.800,91.800 186.800 C 92.600 186.800,92.800 186.600,92.800 185.800 C 92.800 185.000,93.000 184.800,93.800 184.800 C 94.600 184.800,94.800 184.600,94.800 183.800 C 94.800 182.952,94.985 182.800,96.019 182.800 C 96.806 182.800,97.567 182.445,98.165 181.800 C 98.675 181.250,99.476 180.800,99.946 180.800 C 100.590 180.800,100.800 180.554,100.800 179.800 C 100.800 179.000,101.000 178.800,101.800 178.800 C 102.600 178.800,102.800 178.600,102.800 177.800 C 102.800 177.000,103.000 176.800,103.800 176.800 C 104.593 176.800,104.800 176.598,104.800 175.827 C 104.800 175.072,105.047 174.816,105.900 174.687 C 106.505 174.595,107.045 174.493,107.100 174.460 C 107.155 174.427,107.200 185.889,107.200 199.931 M295.200 175.800 C 295.200 176.600,295.400 176.800,296.200 176.800 C 297.000 176.800,297.200 177.000,297.200 177.800 C 297.200 178.600,297.400 178.800,298.200 178.800 C 299.000 178.800,299.200 179.000,299.200 179.800 C 299.200 180.554,299.410 180.800,300.054 180.800 C 300.524 180.800,301.325 181.250,301.835 181.800 C 302.433 182.445,303.194 182.800,303.981 182.800 C 305.015 182.800,305.200 182.952,305.200 183.800 C 305.200 184.600,305.400 184.800,306.200 184.800 C 307.000 184.800,307.200 185.000,307.200 185.800 C 307.200 186.600,307.400 186.800,308.200 186.800 C 309.000 186.800,309.200 187.000,309.200 187.800 C 309.200 188.600,309.400 188.800,310.200 188.800 C 311.000 188.800,311.200 189.000,311.200 189.800 C 311.200 190.600,311.400 190.800,312.200 190.800 C 313.000 190.800,313.200 191.000,313.200 191.800 C 313.200 192.600,313.400 192.800,314.200 192.800 C 315.000 192.800,315.200 193.000,315.200 193.800 C 315.200 194.600,315.400 194.800,316.200 194.800 C 317.000 194.800,317.200 195.000,317.200 195.800 C 317.200 196.600,317.400 196.800,318.200 196.800 C 319.000 196.800,319.200 197.000,319.200 197.800 C 319.200 198.600,319.400 198.800,320.200 198.800 C 321.044 198.800,321.200 198.987,321.200 200.000 C 321.200 201.013,321.044 201.200,320.200 201.200 C 319.400 201.200,319.200 201.400,319.200 202.200 C 319.200 203.000,319.000 203.200,318.200 203.200 C 317.400 203.200,317.200 203.400,317.200 204.200 C 317.200 205.000,317.000 205.200,316.200 205.200 C 315.400 205.200,315.200 205.400,315.200 206.200 C 315.200 207.000,315.000 207.200,314.200 207.200 C 313.400 207.200,313.200 207.400,313.200 208.200 C 313.200 209.000,313.000 209.200,312.200 209.200 C 311.400 209.200,311.200 209.400,311.200 210.200 C 311.200 211.000,311.000 211.200,310.200 211.200 C 309.400 211.200,309.200 211.400,309.200 212.200 C 309.200 213.000,309.000 213.200,308.200 213.200 C 307.400 213.200,307.200 213.400,307.200 214.200 C 307.200 214.950,306.989 215.200,306.358 215.200 C 305.894 215.200,305.180 215.626,304.770 216.148 C 304.360 216.669,303.493 217.201,302.844 217.331 C 302.140 217.472,301.560 217.896,301.405 218.384 C 301.238 218.911,300.801 219.200,300.173 219.200 C 299.402 219.200,299.200 219.407,299.200 220.200 C 299.200 221.000,299.000 221.200,298.200 221.200 C 297.400 221.200,297.200 221.400,297.200 222.200 C 297.200 223.000,297.000 223.200,296.200 223.200 C 295.400 223.200,295.200 223.400,295.200 224.200 C 295.200 225.000,295.000 225.200,294.200 225.200 L 293.200 225.200 293.200 200.000 L 293.200 174.800 294.200 174.800 C 295.000 174.800,295.200 175.000,295.200 175.800 M157.200 206.000 L 157.200 218.800 159.200 218.800 C 161.067 218.800,161.200 218.867,161.200 219.800 C 161.200 220.775,161.273 220.800,164.105 220.800 C 166.734 220.800,167.048 220.886,167.405 221.700 C 167.789 222.574,167.989 222.603,174.409 222.709 C 180.809 222.815,181.031 222.847,181.409 223.709 L 181.800 224.600 200.000 224.600 L 218.200 224.600 218.591 223.709 C 218.969 222.847,219.191 222.815,225.591 222.709 C 232.011 222.603,232.211 222.574,232.595 221.700 C 232.952 220.886,233.266 220.800,235.895 220.800 C 238.727 220.800,238.800 220.775,238.800 219.800 C 238.800 218.867,238.933 218.800,240.800 218.800 L 242.800 218.800 242.800 206.000 L 242.800 193.200 240.000 193.200 C 237.280 193.200,237.200 193.229,237.200 194.200 C 237.200 195.173,237.123 195.200,234.358 195.200 C 231.802 195.200,231.436 195.301,230.729 196.200 C 229.961 197.175,229.813 197.200,224.729 197.200 C 219.644 197.200,219.496 197.225,218.729 198.200 L 217.942 199.200 200.000 199.200 L 182.058 199.200 181.271 198.200 C 180.504 197.225,180.356 197.200,175.271 197.200 C 170.187 197.200,170.039 197.175,169.271 196.200 C 168.564 195.301,168.198 195.200,165.642 195.200 C 162.877 195.200,162.800 195.173,162.800 194.200 C 162.800 193.229,162.720 193.200,160.000 193.200 L 157.200 193.200 157.200 206.000 M64.227 216.800 C 64.998 216.800,65.200 217.007,65.200 217.800 C 65.200 218.600,65.400 218.800,66.200 218.800 C 67.000 218.800,67.200 219.000,67.200 219.800 C 67.200 220.600,67.400 220.800,68.200 220.800 C 69.000 220.800,69.200 221.000,69.200 221.800 C 69.200 222.600,69.400 222.800,70.200 222.800 C 71.000 222.800,71.200 223.000,71.200 223.800 C 71.200 224.600,71.400 224.800,72.200 224.800 C 73.000 224.800,73.200 225.000,73.200 225.800 C 73.200 226.600,73.400 226.800,74.200 226.800 C 75.000 226.800,75.200 227.000,75.200 227.800 C 75.200 228.592,75.402 228.800,76.172 228.800 C 76.876 228.800,77.180 229.049,77.272 229.700 C 77.370 230.388,77.704 230.629,78.690 230.725 C 79.477 230.801,80.280 231.230,80.748 231.825 C 81.170 232.361,81.894 232.800,82.358 232.800 C 82.989 232.800,83.200 233.050,83.200 233.800 C 83.200 234.600,83.400 234.800,84.200 234.800 C 85.000 234.800,85.200 235.000,85.200 235.800 C 85.200 236.600,85.400 236.800,86.200 236.800 C 87.000 236.800,87.200 237.000,87.200 237.800 C 87.200 238.592,87.402 238.800,88.172 238.800 C 88.876 238.800,89.180 239.049,89.272 239.700 C 89.370 240.388,89.704 240.629,90.690 240.725 C 91.477 240.801,92.280 241.230,92.748 241.825 C 93.170 242.361,93.894 242.800,94.358 242.800 C 94.989 242.800,95.200 243.050,95.200 243.800 C 95.200 244.600,95.400 244.800,96.200 244.800 C 97.000 244.800,97.200 245.000,97.200 245.800 C 97.200 246.595,97.401 246.800,98.182 246.800 C 98.722 246.800,99.614 247.250,100.164 247.800 C 100.714 248.350,101.622 248.800,102.182 248.800 C 103.001 248.800,103.200 248.995,103.200 249.800 C 103.200 250.600,103.400 250.800,104.200 250.800 C 105.000 250.800,105.200 251.000,105.200 251.800 C 105.200 252.733,105.333 252.800,107.200 252.800 L 109.200 252.800 109.200 254.642 C 109.200 256.131,109.392 256.636,110.200 257.271 C 111.192 258.052,111.200 258.110,111.200 264.429 L 111.200 270.800 112.200 270.800 L 113.200 270.800 113.200 276.019 C 113.200 281.072,113.232 281.268,114.200 282.165 C 115.128 283.025,115.200 283.359,115.200 286.788 C 115.200 290.255,115.262 290.534,116.200 291.271 C 117.126 292.000,117.200 292.309,117.200 295.447 C 117.200 298.529,117.291 298.927,118.200 299.836 C 119.995 301.631,119.602 303.200,117.358 303.200 C 115.869 303.200,115.364 303.392,114.729 304.200 L 113.942 305.200 94.371 305.200 L 74.800 305.200 74.800 304.200 C 74.800 303.200,74.799 303.200,70.818 303.200 C 67.104 303.200,66.769 303.133,65.836 302.200 C 65.055 301.418,64.428 301.200,62.964 301.200 C 61.481 301.200,60.899 300.992,60.165 300.200 C 59.391 299.365,58.872 299.200,57.019 299.200 C 54.919 299.200,54.800 299.146,54.800 298.200 C 54.800 297.405,54.599 297.200,53.818 297.200 C 53.278 297.200,52.386 296.750,51.836 296.200 C 51.286 295.650,50.378 295.200,49.818 295.200 C 48.999 295.200,48.800 295.005,48.800 294.200 C 48.800 293.400,48.600 293.200,47.800 293.200 C 47.000 293.200,46.800 293.000,46.800 292.200 C 46.800 291.400,46.600 291.200,45.800 291.200 C 45.000 291.200,44.800 291.000,44.800 290.200 C 44.800 289.400,44.600 289.200,43.800 289.200 C 43.000 289.200,42.800 289.000,42.800 288.200 C 42.800 287.400,42.600 287.200,41.800 287.200 C 40.867 287.200,40.800 287.067,40.800 285.200 C 40.800 283.333,40.733 283.200,39.800 283.200 C 38.854 283.200,38.800 283.081,38.800 280.981 C 38.800 279.128,38.635 278.609,37.800 277.835 C 36.302 276.447,36.213 262.939,37.700 262.728 C 38.554 262.607,38.606 262.400,38.714 258.700 C 38.827 254.853,38.842 254.800,39.814 254.800 C 40.729 254.800,40.800 254.657,40.800 252.828 C 40.800 251.087,40.906 250.841,41.700 250.728 C 42.497 250.615,42.614 250.337,42.720 248.314 C 42.817 246.444,43.018 245.887,43.820 245.256 C 44.359 244.832,44.800 244.114,44.800 243.661 C 44.800 243.207,45.250 242.386,45.800 241.836 C 46.350 241.286,46.800 240.391,46.800 239.846 C 46.800 239.124,47.043 238.821,47.700 238.728 C 48.468 238.619,48.618 238.321,48.722 236.700 C 48.832 234.985,48.939 234.800,49.822 234.800 C 50.669 234.800,50.800 234.617,50.800 233.429 C 50.800 232.443,51.081 231.837,51.800 231.271 C 52.350 230.839,52.800 230.106,52.800 229.642 C 52.800 229.011,53.050 228.800,53.800 228.800 C 54.554 228.800,54.800 228.590,54.800 227.946 C 54.800 227.476,55.250 226.675,55.800 226.165 C 56.445 225.567,56.800 224.806,56.800 224.019 C 56.800 222.985,56.952 222.800,57.800 222.800 C 58.600 222.800,58.800 222.600,58.800 221.800 C 58.800 221.000,59.000 220.800,59.800 220.800 C 60.572 220.800,60.800 220.594,60.800 219.895 C 60.800 219.340,61.148 218.837,61.700 218.595 C 62.394 218.290,62.640 217.789,62.774 216.400 C 62.904 215.057,62.987 214.879,63.101 215.700 C 63.219 216.557,63.468 216.800,64.227 216.800 M338.301 218.595 C 338.852 218.837,339.200 219.340,339.200 219.895 C 339.200 220.594,339.428 220.800,340.200 220.800 C 341.000 220.800,341.200 221.000,341.200 221.800 C 341.200 222.594,341.402 222.800,342.177 222.800 C 343.040 222.800,343.168 222.998,343.277 224.500 C 343.372 225.813,343.605 226.290,344.300 226.595 C 344.852 226.837,345.200 227.340,345.200 227.895 C 345.200 228.594,345.428 228.800,346.200 228.800 C 347.005 228.800,347.200 228.999,347.200 229.818 C 347.200 230.378,347.650 231.286,348.200 231.836 C 348.750 232.386,349.200 233.278,349.200 233.818 C 349.200 234.593,349.406 234.800,350.178 234.800 C 351.061 234.800,351.168 234.985,351.278 236.700 C 351.382 238.321,351.532 238.619,352.300 238.728 C 353.003 238.828,353.200 239.116,353.200 240.047 C 353.200 240.804,353.565 241.576,354.200 242.165 C 354.750 242.675,355.200 243.484,355.200 243.964 C 355.200 244.444,355.640 245.276,356.178 245.814 C 356.886 246.522,357.190 247.318,357.278 248.696 C 357.382 250.321,357.532 250.619,358.300 250.728 C 359.082 250.839,359.200 251.093,359.200 252.670 C 359.200 254.129,359.396 254.639,360.200 255.271 C 361.125 255.999,361.200 256.310,361.200 259.429 C 361.200 262.758,361.212 262.800,362.200 262.800 L 363.200 262.800 363.200 269.905 C 363.200 276.890,363.185 277.017,362.300 277.405 C 361.514 277.750,361.385 278.143,361.282 280.500 C 361.169 283.068,361.115 283.200,360.182 283.200 C 359.270 283.200,359.200 283.343,359.200 285.200 C 359.200 287.067,359.133 287.200,358.200 287.200 C 357.400 287.200,357.200 287.400,357.200 288.200 C 357.200 289.000,357.000 289.200,356.200 289.200 C 355.400 289.200,355.200 289.400,355.200 290.200 C 355.200 291.000,355.000 291.200,354.200 291.200 C 353.400 291.200,353.200 291.400,353.200 292.200 C 353.200 293.000,353.000 293.200,352.200 293.200 C 351.400 293.200,351.200 293.400,351.200 294.200 C 351.200 295.048,351.015 295.200,349.981 295.200 C 349.194 295.200,348.433 295.555,347.835 296.200 C 347.325 296.750,346.524 297.200,346.054 297.200 C 345.410 297.200,345.200 297.446,345.200 298.200 C 345.200 299.146,345.081 299.200,342.981 299.200 C 341.128 299.200,340.609 299.365,339.835 300.200 C 339.101 300.992,338.519 301.200,337.036 301.200 C 335.572 301.200,334.945 301.418,334.164 302.200 C 333.231 303.133,332.896 303.200,329.182 303.200 L 325.200 303.200 325.200 304.204 L 325.200 305.207 305.100 305.104 L 285.000 305.000 284.872 304.100 C 284.762 303.321,284.505 303.200,282.972 303.200 L 281.200 303.200 281.200 301.409 C 281.200 299.940,281.380 299.501,282.200 298.963 C 283.149 298.341,283.200 298.117,283.200 294.554 C 283.200 291.137,283.268 290.800,283.957 290.800 C 285.002 290.800,285.200 290.059,285.200 286.141 C 285.200 283.137,285.315 282.596,286.200 281.436 C 287.133 280.212,287.200 279.816,287.200 275.509 C 287.200 271.356,287.274 270.874,287.939 270.700 C 288.962 270.432,289.200 268.859,289.200 262.350 C 289.200 257.099,289.242 256.800,289.986 256.800 C 290.627 256.800,290.821 256.433,291.035 254.821 L 291.298 252.841 292.949 252.721 C 294.297 252.622,294.623 252.440,294.725 251.724 C 294.812 251.111,295.172 250.811,295.925 250.724 C 296.687 250.636,297.037 250.338,297.128 249.700 C 297.216 249.079,297.528 248.800,298.133 248.800 C 298.659 248.800,299.168 248.440,299.405 247.900 C 299.694 247.243,300.198 246.967,301.275 246.877 C 302.442 246.780,302.776 246.571,302.875 245.877 C 302.954 245.321,303.330 244.953,303.900 244.872 C 304.551 244.780,304.800 244.476,304.800 243.772 C 304.800 243.002,305.008 242.800,305.800 242.800 C 306.594 242.800,306.800 242.599,306.800 241.822 C 306.800 240.939,306.985 240.832,308.700 240.722 C 310.321 240.618,310.619 240.468,310.728 239.700 C 310.820 239.049,311.124 238.800,311.828 238.800 C 312.598 238.800,312.800 238.592,312.800 237.800 C 312.800 237.000,313.000 236.800,313.800 236.800 C 314.600 236.800,314.800 236.600,314.800 235.800 C 314.800 235.000,315.000 234.800,315.800 234.800 C 316.600 234.800,316.800 234.600,316.800 233.800 C 316.800 233.050,317.011 232.800,317.642 232.800 C 318.106 232.800,318.830 232.362,319.251 231.826 C 319.673 231.290,320.509 230.795,321.109 230.726 C 321.780 230.648,322.352 230.253,322.595 229.700 C 322.837 229.148,323.340 228.800,323.895 228.800 C 324.594 228.800,324.800 228.572,324.800 227.800 C 324.800 227.000,325.000 226.800,325.800 226.800 C 326.600 226.800,326.800 226.600,326.800 225.800 C 326.800 225.000,327.000 224.800,327.800 224.800 C 328.600 224.800,328.800 224.600,328.800 223.800 C 328.800 223.000,329.000 222.800,329.800 222.800 C 330.600 222.800,330.800 222.600,330.800 221.800 C 330.800 221.000,331.000 220.800,331.800 220.800 C 332.600 220.800,332.800 220.600,332.800 219.800 C 332.800 219.000,333.000 218.800,333.800 218.800 C 334.600 218.800,334.800 218.600,334.800 217.800 C 334.800 217.000,335.000 216.800,335.800 216.800 C 336.350 216.800,336.821 216.575,336.847 216.300 C 336.873 216.025,337.009 216.340,337.148 217.000 C 337.297 217.702,337.775 218.364,338.301 218.595 M157.484 221.450 C 157.328 221.606,157.200 227.373,157.200 234.267 L 157.200 246.800 158.172 246.800 C 158.876 246.800,159.180 247.049,159.272 247.700 C 159.389 248.526,159.639 248.610,162.300 248.718 C 165.081 248.830,165.200 248.875,165.200 249.818 L 165.200 250.800 170.571 250.800 C 175.824 250.800,175.959 250.822,176.729 251.800 L 177.515 252.800 200.000 252.800 L 222.485 252.800 223.262 251.811 C 224.010 250.861,224.243 250.819,229.320 250.711 C 234.421 250.604,234.604 250.570,234.726 249.717 C 234.840 248.913,235.108 248.824,237.726 248.717 C 240.360 248.610,240.611 248.525,240.728 247.700 C 240.821 247.047,241.124 246.800,241.833 246.800 L 242.811 246.800 242.706 234.100 L 242.600 221.400 240.000 221.400 C 237.608 221.400,237.390 221.472,237.272 222.300 C 237.159 223.094,236.913 223.200,235.172 223.200 C 233.335 223.200,233.200 223.269,233.200 224.200 L 233.200 225.200 228.200 225.200 L 223.200 225.200 223.200 226.200 L 223.200 227.200 200.000 227.200 L 176.800 227.200 176.800 226.200 L 176.800 225.200 171.800 225.200 L 166.800 225.200 166.800 224.200 C 166.800 223.269,166.665 223.200,164.828 223.200 C 163.087 223.200,162.841 223.094,162.728 222.300 C 162.598 221.386,158.252 220.682,157.484 221.450 M134.598 270.800 C 135.555 270.800,136.168 271.088,136.729 271.800 C 137.161 272.350,137.894 272.800,138.358 272.800 C 138.989 272.800,139.200 273.050,139.200 273.800 C 139.200 274.733,139.333 274.800,141.200 274.800 C 143.067 274.800,143.200 274.867,143.200 275.800 C 143.200 276.733,143.333 276.800,145.200 276.800 C 147.067 276.800,147.200 276.867,147.200 277.800 C 147.200 278.672,147.375 278.800,148.571 278.800 C 149.557 278.800,150.163 279.081,150.729 279.800 C 151.161 280.350,151.852 280.800,152.263 280.800 C 152.674 280.800,153.188 281.205,153.405 281.700 C 153.709 282.392,154.188 282.628,155.475 282.722 C 156.849 282.822,157.173 283.001,157.275 283.722 C 157.381 284.464,157.694 284.619,159.300 284.722 C 161.015 284.832,161.200 284.939,161.200 285.822 C 161.200 286.729,161.345 286.800,163.200 286.800 C 165.067 286.800,165.200 286.867,165.200 287.800 C 165.200 288.733,165.333 288.800,167.200 288.800 C 169.055 288.800,169.200 288.871,169.200 289.779 C 169.200 290.675,169.379 290.771,171.300 290.905 C 172.981 291.023,172.781 291.067,170.300 291.126 C 167.280 291.198,167.200 291.226,167.200 292.200 C 167.200 293.178,167.133 293.200,164.200 293.200 C 161.279 293.200,161.200 293.226,161.200 294.185 C 161.200 295.152,161.134 295.172,157.500 295.285 C 154.102 295.391,153.768 295.473,153.405 296.300 C 153.051 297.108,152.728 297.200,150.263 297.200 C 147.808 297.200,147.431 297.307,146.729 298.200 C 145.994 299.133,145.704 299.200,142.371 299.200 L 138.800 299.200 138.800 295.200 L 138.800 291.200 137.800 291.200 C 136.803 291.200,136.800 291.189,136.800 287.358 C 136.800 283.735,136.743 283.470,135.800 282.729 C 134.846 281.978,134.800 281.746,134.800 277.729 C 134.800 273.711,134.754 273.479,133.800 272.729 C 132.994 272.095,132.812 271.618,132.860 270.271 C 132.903 269.075,132.967 268.913,133.087 269.700 C 133.230 270.649,133.438 270.800,134.598 270.800 M266.220 272.143 C 265.263 273.101,265.200 273.409,265.200 277.164 C 265.200 280.897,265.133 281.230,264.200 282.164 C 263.266 283.098,263.200 283.429,263.200 287.182 L 263.200 291.200 262.200 291.200 C 261.215 291.200,261.200 291.249,261.200 294.469 C 261.200 298.820,260.860 299.200,256.967 299.200 C 254.341 299.200,253.982 299.103,253.271 298.200 C 252.564 297.301,252.198 297.200,249.642 297.200 C 248.079 297.200,246.800 297.033,246.800 296.829 C 246.800 295.670,245.463 295.200,242.171 295.200 C 238.842 295.200,238.800 295.188,238.800 294.200 C 238.800 293.222,238.733 293.200,235.800 293.200 C 232.867 293.200,232.800 293.178,232.800 292.200 C 232.800 291.225,232.723 291.198,229.700 291.137 C 226.911 291.081,226.801 291.051,228.600 290.837 C 230.283 290.638,230.620 290.457,230.728 289.700 C 230.841 288.906,231.087 288.800,232.828 288.800 C 234.653 288.800,234.800 288.727,234.800 287.822 C 234.800 286.939,234.985 286.832,236.700 286.722 C 238.307 286.619,238.619 286.464,238.725 285.721 C 238.831 284.979,239.144 284.823,240.725 284.721 C 242.321 284.618,242.619 284.466,242.728 283.700 C 242.831 282.971,243.110 282.800,244.199 282.800 C 245.477 282.800,246.800 281.972,246.800 281.171 C 246.800 280.967,247.179 280.800,247.642 280.800 C 248.106 280.800,248.839 280.350,249.271 279.800 C 249.837 279.081,250.443 278.800,251.429 278.800 C 252.625 278.800,252.800 278.672,252.800 277.800 C 252.800 276.867,252.934 276.800,254.792 276.800 C 256.573 276.800,256.811 276.696,257.030 275.821 C 257.235 275.008,257.557 274.822,258.938 274.721 C 260.312 274.621,260.622 274.444,260.728 273.700 C 260.824 273.021,261.120 272.800,261.933 272.800 C 262.667 272.800,263.136 272.513,263.405 271.900 C 263.692 271.246,264.237 270.945,265.400 270.800 C 267.367 270.554,267.535 270.829,266.220 272.143 M201.200 303.800 C 201.200 304.778,201.267 304.800,204.200 304.800 C 207.133 304.800,207.200 304.822,207.200 305.800 C 207.200 306.732,207.335 306.800,209.182 306.800 C 210.762 306.800,211.366 307.002,212.164 307.800 C 212.953 308.589,213.569 308.800,215.087 308.800 C 216.698 308.800,217.074 308.946,217.405 309.700 C 217.748 310.481,218.145 310.615,220.412 310.716 C 222.664 310.817,223.078 310.954,223.412 311.716 C 223.757 312.501,224.144 312.613,226.884 312.717 C 229.611 312.820,230.058 312.947,230.742 313.817 C 231.434 314.696,231.815 314.800,234.358 314.800 C 237.123 314.800,237.200 314.827,237.200 315.800 C 237.200 316.788,237.242 316.800,240.571 316.800 C 243.690 316.800,244.001 316.875,244.729 317.800 C 245.470 318.743,245.735 318.800,249.358 318.800 L 253.200 318.800 253.200 321.000 C 253.200 323.080,253.145 323.200,252.200 323.200 C 251.273 323.200,251.200 323.340,251.200 325.105 C 251.200 326.697,251.052 327.075,250.300 327.405 C 249.559 327.730,249.379 328.169,249.280 329.887 C 249.184 331.541,248.956 332.134,248.180 332.745 C 247.393 333.363,247.200 333.879,247.200 335.358 C 247.200 337.056,247.122 337.200,246.200 337.200 C 245.267 337.200,245.200 337.333,245.200 339.200 C 245.200 341.067,245.133 341.200,244.200 341.200 C 243.267 341.200,243.200 341.333,243.200 343.200 C 243.200 345.067,243.133 345.200,242.200 345.200 C 241.446 345.200,241.200 345.410,241.200 346.054 C 241.200 346.524,240.750 347.325,240.200 347.835 C 239.555 348.433,239.200 349.194,239.200 349.981 C 239.200 351.015,239.048 351.200,238.200 351.200 C 237.267 351.200,237.200 351.333,237.200 353.200 C 237.200 355.067,237.133 355.200,236.200 355.200 C 235.400 355.200,235.200 355.400,235.200 356.200 C 235.200 357.000,235.000 357.200,234.200 357.200 C 233.405 357.200,233.200 357.401,233.200 358.182 C 233.200 358.722,232.750 359.614,232.200 360.164 C 231.650 360.714,231.200 361.622,231.200 362.182 C 231.200 363.001,231.005 363.200,230.200 363.200 C 229.400 363.200,229.200 363.400,229.200 364.200 C 229.200 365.000,229.000 365.200,228.200 365.200 C 227.400 365.200,227.200 365.400,227.200 366.200 C 227.200 367.000,227.000 367.200,226.200 367.200 C 225.400 367.200,225.200 367.400,225.200 368.200 C 225.200 369.000,225.000 369.200,224.200 369.200 C 223.400 369.200,223.200 369.400,223.200 370.200 C 223.200 371.000,223.000 371.200,222.200 371.200 C 221.400 371.200,221.200 371.400,221.200 372.200 C 221.200 373.048,221.015 373.200,219.981 373.200 C 219.194 373.200,218.433 373.555,217.835 374.200 C 217.325 374.750,216.524 375.200,216.054 375.200 C 215.410 375.200,215.200 375.446,215.200 376.200 C 215.200 377.133,215.067 377.200,213.200 377.200 C 211.343 377.200,211.200 377.270,211.200 378.182 C 211.200 379.125,211.081 379.170,208.300 379.282 C 205.639 379.390,205.389 379.474,205.272 380.300 C 205.147 381.179,205.028 381.200,200.067 381.200 C 195.185 381.200,194.974 381.165,194.595 380.300 C 194.250 379.514,193.857 379.385,191.500 379.282 C 188.932 379.169,188.800 379.115,188.800 378.182 C 188.800 377.270,188.657 377.200,186.800 377.200 C 184.933 377.200,184.800 377.133,184.800 376.200 C 184.800 375.446,184.590 375.200,183.946 375.200 C 183.476 375.200,182.675 374.750,182.165 374.200 C 181.567 373.555,180.806 373.200,180.019 373.200 C 178.985 373.200,178.800 373.048,178.800 372.200 C 178.800 371.400,178.600 371.200,177.800 371.200 C 177.000 371.200,176.800 371.000,176.800 370.200 C 176.800 369.400,176.600 369.200,175.800 369.200 C 175.000 369.200,174.800 369.000,174.800 368.200 C 174.800 367.400,174.600 367.200,173.800 367.200 C 173.000 367.200,172.800 367.000,172.800 366.200 C 172.800 365.400,172.600 365.200,171.800 365.200 C 171.000 365.200,170.800 365.000,170.800 364.200 C 170.800 363.400,170.600 363.200,169.800 363.200 C 169.050 363.200,168.800 362.989,168.800 362.358 C 168.800 361.894,168.350 361.161,167.800 360.729 C 167.081 360.163,166.800 359.557,166.800 358.571 C 166.800 357.375,166.672 357.200,165.800 357.200 C 165.000 357.200,164.800 357.000,164.800 356.200 C 164.800 355.400,164.600 355.200,163.800 355.200 C 162.867 355.200,162.800 355.067,162.800 353.200 C 162.800 351.333,162.733 351.200,161.800 351.200 C 160.995 351.200,160.800 351.001,160.800 350.182 C 160.800 349.622,160.350 348.714,159.800 348.164 C 159.250 347.614,158.800 346.722,158.800 346.182 C 158.800 345.401,158.595 345.200,157.800 345.200 C 156.867 345.200,156.800 345.067,156.800 343.200 C 156.800 341.333,156.733 341.200,155.800 341.200 C 154.867 341.200,154.800 341.067,154.800 339.200 C 154.800 337.333,154.733 337.200,153.800 337.200 C 152.867 337.200,152.800 337.067,152.800 335.200 C 152.800 333.333,152.733 333.200,151.800 333.200 C 150.846 333.200,150.800 333.091,150.800 330.829 C 150.800 328.551,150.194 327.200,149.171 327.200 C 148.967 327.200,148.800 326.300,148.800 325.200 C 148.800 323.333,148.733 323.200,147.800 323.200 C 146.855 323.200,146.800 323.080,146.800 321.000 L 146.800 318.800 150.800 318.800 L 154.800 318.800 154.800 317.800 L 154.800 316.800 158.800 316.800 L 162.800 316.800 162.800 315.800 C 162.800 314.827,162.877 314.800,165.642 314.800 C 168.185 314.800,168.566 314.696,169.258 313.817 C 169.942 312.947,170.389 312.820,173.116 312.717 C 175.856 312.613,176.243 312.501,176.588 311.716 C 176.922 310.954,177.336 310.817,179.588 310.716 C 181.855 310.615,182.252 310.481,182.595 309.700 C 182.926 308.946,183.302 308.800,184.913 308.800 C 186.431 308.800,187.047 308.589,187.836 307.800 C 188.634 307.002,189.238 306.800,190.818 306.800 C 192.665 306.800,192.800 306.732,192.800 305.800 C 192.800 304.822,192.867 304.800,195.800 304.800 C 198.733 304.800,198.800 304.778,198.800 303.800 C 198.800 302.956,198.987 302.800,200.000 302.800 C 201.013 302.800,201.200 302.956,201.200 303.800 " stroke="none" fill="#040404" fill-rule="evenodd"></path><path id="path1" d="" stroke="none" fill="#080404" fill-rule="evenodd"></path><path id="path2" d="" stroke="none" fill="#080404" fill-rule="evenodd"></path><path id="path3" d="" stroke="none" fill="#080404" fill-rule="evenodd"></path><path id="path4" d="" stroke="none" fill="#080404" fill-rule="evenodd"></path></g></svg>