<?xml version="1.0" standalone="no"?>
<!DOCTYPE svg PUBLIC "-//W3C//DTD SVG 20010904//EN"
 "http://www.w3.org/TR/2001/REC-SVG-20010904/DTD/svg10.dtd">
<svg version="1.0" xmlns="http://www.w3.org/2000/svg"
 width="200.000000pt" height="200.000000pt" viewBox="0 0 200.000000 200.000000"
 preserveAspectRatio="xMidYMid meet">

<g transform="translate(0.000000,200.000000) scale(0.100000,-0.100000)"
fill="#000000" stroke="none">
<path d="M745 1984 c-97 -20 -205 -75 -264 -134 -68 -68 -95 -127 -99 -222 -4
-83 -1 -79 -72 -93 -100 -20 -211 -109 -251 -200 -26 -59 -37 -180 -20 -241
26 -97 126 -195 259 -255 35 -16 66 -29 68 -29 2 0 4 19 3 43 0 42 -1 42 -62
71 -75 36 -153 107 -178 161 -41 90 -14 230 57 297 42 39 135 79 201 85 32 3
63 10 70 15 8 7 10 34 6 92 -7 101 4 138 58 200 47 53 100 86 185 118 87 31
275 32 354 0 103 -41 169 -119 170 -199 0 -33 22 -63 45 -63 8 0 22 12 32 28
47 76 94 105 168 105 62 0 111 -20 153 -64 46 -47 58 -98 38 -160 -9 -26 -16
-55 -16 -64 0 -17 27 -31 81 -40 46 -7 116 -67 140 -119 26 -58 24 -139 -5
-201 -24 -52 -105 -140 -137 -150 -15 -5 -19 -16 -19 -56 l0 -50 32 18 c56 32
163 140 193 194 54 100 45 235 -22 332 -30 43 -96 92 -137 103 -27 6 -28 9
-21 51 31 205 -244 367 -420 247 -20 -13 -37 -24 -39 -24 -2 0 -9 13 -16 30
-18 43 -102 118 -164 145 -104 46 -239 56 -371 29z"/>
<path d="M821 1504 c-44 -37 -58 -91 -36 -137 9 -20 28 -43 41 -52 21 -14 24
-23 24 -83 l0 -68 -50 -49 -50 -49 0 -229 0 -228 38 3 37 3 3 206 2 205 50 49
50 49 0 84 0 83 40 38 c36 34 40 43 40 85 0 41 -5 53 -34 82 -45 45 -108 48
-155 8z m119 -44 c40 -40 14 -110 -42 -110 -42 0 -68 25 -68 66 0 57 69 85
110 44z"/>
<path d="M1433 1335 c-39 -17 -73 -68 -73 -110 0 -37 32 -91 59 -100 19 -6 21
-14 21 -109 l0 -102 55 -54 55 -54 0 -99 0 -98 38 3 37 3 3 110 3 110 -56 55
-55 54 0 87 c0 80 2 88 21 94 27 9 59 63 59 100 0 43 -35 94 -75 111 -42 17
-51 17 -92 -1z m91 -60 c48 -49 6 -127 -60 -111 -74 19 -60 126 16 126 16 0
35 -7 44 -15z"/>
<path d="M432 1220 c-46 -28 -68 -82 -53 -131 6 -21 24 -48 39 -59 l27 -22 5
-196 5 -197 38 -3 37 -3 0 200 c0 193 1 200 21 206 28 9 59 63 59 103 0 97
-96 152 -178 102z m103 -55 c27 -26 31 -46 15 -75 -17 -32 -48 -43 -81 -30
-48 20 -52 96 -7 118 35 16 47 14 73 -13z"/>
<path d="M1113 1095 c-39 -17 -73 -68 -73 -110 0 -37 32 -91 59 -100 20 -6 21
-14 21 -141 l0 -134 40 0 40 0 0 134 c0 127 1 135 21 141 27 9 59 63 59 100 0
43 -35 94 -75 111 -42 17 -51 17 -92 -1z m91 -60 c48 -49 6 -127 -60 -111 -74
19 -60 126 16 126 16 0 35 -7 44 -15z"/>
<path d="M457 543 c-4 -3 -7 -21 -7 -40 0 -32 1 -33 40 -33 l40 0 0 40 c0 39
-1 40 -33 40 -19 0 -37 -3 -40 -7z"/>
<path d="M750 511 l0 -41 41 0 40 0 -3 38 c-3 35 -5 37 -40 40 l-38 3 0 -40z"/>
<path d="M1120 510 l0 -40 40 0 40 0 0 40 0 40 -40 0 -40 0 0 -40z"/>
<path d="M1550 511 l0 -41 41 0 40 0 -3 38 c-3 35 -5 37 -40 40 l-38 3 0 -40z"/>
<path d="M450 360 l0 -40 -88 0 c-81 0 -90 2 -112 25 -32 34 -88 34 -127 1
-22 -19 -28 -32 -28 -66 0 -81 89 -119 153 -65 28 24 36 25 156 25 l126 0 0
80 0 80 -40 0 -40 0 0 -40z"/>
<path d="M750 292 c0 -98 -2 -111 -21 -128 -68 -61 -26 -164 66 -164 35 0 85
50 85 85 0 30 -26 85 -40 85 -6 0 -10 47 -10 115 l0 115 -40 0 -40 0 0 -108z"/>
<path d="M1120 225 l0 -175 95 0 c55 0 95 -4 95 -10 0 -14 55 -40 85 -40 35 0
85 50 85 85 0 92 -103 134 -164 66 -14 -16 -31 -21 -68 -21 l-48 0 0 135 0
135 -40 0 -40 0 0 -175z"/>
<path d="M1550 320 l0 -80 115 0 c108 0 115 -1 139 -25 36 -36 88 -34 127 4
37 37 38 79 3 120 -34 41 -92 44 -130 6 -22 -22 -33 -25 -99 -25 l-75 0 0 40
0 40 -40 0 -40 0 0 -80z"/>
</g>
</svg>
