<?xml version="1.0" encoding="utf-8"?>
<!-- Generator: Adobe Illustrator 21.1.0, SVG Export Plug-In . SVG Version: 6.00 Build 0)  -->
<svg version="1.1" xmlns="http://www.w3.org/2000/svg" xmlns:xlink="http://www.w3.org/1999/xlink" x="0px" y="0px"
	 viewBox="0 0 432.2 432.2" style="enable-background:new 0 0 432.2 432.2;" xml:space="preserve">
<style type="text/css">
	.st0{fill:none;stroke:#FFFFFF;stroke-miterlimit:10;}
	.st1{fill:#FFFFFF;}
	.st2{font-family:'AvenirNextCondensed-Medium';}
	.st3{font-size:169px;}
	.st4{font-family:'AvenirNextCondensed-Regular';}
	.st5{font-size:65px;}
	.st6{letter-spacing:6.4;}
	.st7{letter-spacing:9.6;}
	.st8{letter-spacing:4.8;}
	.st9{letter-spacing:3.2;}
</style>
<g id="Layer_2">
	<rect x="1" y="1" class="st0" width="430.2" height="430.2"/>
</g>
<g id="Layer_1">
	<g>
		<g transform="translate(0.000000,450.000000) scale(0.100000,-0.100000)">
			<path class="st1" d="M768.4,2460.8c-26.6,262.1-200,481.9-448.3,567.8c-66.3,23-142.8,35.6-212.9,36v-367.1
				c33.1-0.3,66.7-6.1,99.6-18.1c43.4-15.6,75-35.9,109.4-70.3c34-34,57.4-71.1,71.9-114.4c16.8-50.4,20.3-87.9,13.3-137.9
				c-20.5-147.9-149.4-257.5-294.1-258v-287.2c0-0.9-0.2-1.6-0.2-2.5V1733c40.4,0.1,80.7,3,112.7,8.8
				c239.8,43,435.8,210.9,515.5,441.3c16.8,48,27.7,100,33.2,158.2C773.1,2389.3,773.1,2412.7,768.4,2460.8z M394.6,2182.7
				c37.1,75.8,50.8,134.7,50.8,217.5c0,80.8-17.6,151.1-56.6,226.5c-14.5,28.1-16,32.4-7.8,24.6c5.5-5.1,17.2-20.3,26.6-34.4
				c55.5-84.4,77.3-176.5,64-271.8c-8.2-59-33.6-123-68-171.4C374.3,2132.3,371.6,2135.4,394.6,2182.7z M422.4,2106.9
				c-0.8,0.8,4.7,11.7,11.7,24.2c73.8,126.5,91.8,289.4,46.9,427.3c-11.7,36.3-28.1,73.8-46.1,105.4c-7.8,13.7-13.3,25-12.5,25.8
				c0.8,0.8,12.1-12.9,25.4-30.5c70.3-94.5,100.8-218.7,80.8-332c-7.8-46.1-19.5-81.6-39.4-122.2
				C473.1,2172.9,425.9,2103.4,422.4,2106.9z M467.3,2072.2l10.5,17.6c35.1,59.4,66.8,142.9,78.9,207c9.4,50.8,9.4,152.3,0,203.1
				c-12.1,64-43.7,147.6-78.9,207l-10.5,17.6l15.6-17.6c48.8-55.1,94.1-156.2,105.8-236.3c4.7-34,5.1-106.2,0-141
				c-11.7-84-55.5-183.2-105.8-239.8L467.3,2072.2z M527.8,2061.2c44.9,71.1,79.3,167.5,91,255c18.7,142.5-12.9,289.8-90.6,419.4
				l-9.8,16l14.1-15.6c50.4-55.8,96.5-156.6,113.3-248c7.4-41.4,7.4-134.7-0.4-180c-13.7-80.1-51.9-168.7-100.4-232.4
				C519.6,2042.1,511.4,2035.1,527.8,2061.2z M710.2,2354.9c-8.6-105.4-41.4-200.7-97.2-283.1c-23.4-34.4-54.3-72.6-42.6-52.3
				c55.5,94.5,81.6,158.6,101.5,250.3c7.4,35.5,8.6,51.9,8.6,128.5c0,76.5-1.2,92.9-8.6,128.5c-19.9,91.8-46.1,155.8-101.5,250.3
				c-11.3,19.5,19.1-17.6,40.6-50c55.8-82.4,91-182,99.2-280c1.6-19.1,3.1-37.9,3.1-41C713.7,2403,712.2,2379.9,710.2,2354.9z"/>
			<path class="st1" d="M172.4,2431.5c-14.1,26.7-35.7,40.3-65.5,40.9v-148.2c43,1,72.1,31.5,72.1,74.9
				C178.7,2410.4,175.9,2424.8,172.4,2431.5z"/>
		</g>
	</g>
	<text transform="matrix(1.2458 0 0 1 333.6825 271.5238)" class="st1 st2 st3">S</text>
	<text transform="matrix(1.2458 0 0 1 81.3442 271.0494)" class="st1 st2 st3">ISC</text>
	<text transform="matrix(1.2458 0 0 1 3.8206 105.7636)"><tspan x="0" y="0" class="st1 st4 st5 st6">M</tspan><tspan x="52.9" y="0" class="st1 st4 st5 st7">c</tspan><tspan x="85.1" y="0" class="st1 st4 st5 st8">G</tspan><tspan x="125.1" y="0" class="st1 st4 st5 st6">IL</tspan><tspan x="176.4" y="0" class="st1 st4 st5 st9">L</tspan></text>
	<text transform="matrix(1.2458 0 0 1 3.744 362.4257)" class="st1 st4 st5">L</text>
	<text transform="matrix(1.2458 0 0 1 40.1159 362.4257)" class="st1 st4 st5 st9">ABORATORY</text>
</g>
</svg>
